# Blender v2.68 (sub 0) OBJ File: 'ball.blend'
# www.blender.org
v -0.195090 0.980785 0.000000
v -0.382683 0.923880 0.000000
v -0.555570 0.831470 0.000000
v -0.707107 0.707107 0.000000
v -0.831470 0.555570 0.000000
v -0.923880 0.382683 0.000000
v -0.980785 0.195090 0.000000
v -1.000000 0.000000 0.000000
v -0.980785 -0.195090 0.000000
v -0.923880 -0.382683 0.000000
v -0.831470 -0.555570 0.000000
v -0.707107 -0.707107 0.000000
v -0.555570 -0.831470 0.000000
v -0.382683 -0.923880 0.000000
v -0.195090 -0.980785 0.000000
v -0.191342 0.980785 -0.038060
v -0.375330 0.923880 -0.074658
v -0.544895 0.831470 -0.108386
v -0.693520 0.707107 -0.137950
v -0.815493 0.555570 -0.162212
v -0.906127 0.382683 -0.180240
v -0.961940 0.195090 -0.191342
v -0.980785 0.000000 -0.195090
v -0.961940 -0.195090 -0.191342
v -0.906127 -0.382683 -0.180240
v -0.815493 -0.555570 -0.162212
v -0.693520 -0.707107 -0.137950
v -0.544895 -0.831470 -0.108386
v -0.375330 -0.923880 -0.074658
v -0.191341 -0.980785 -0.038060
v -0.180240 0.980785 -0.074658
v -0.353553 0.923880 -0.146447
v -0.513280 0.831470 -0.212608
v -0.653281 0.707107 -0.270598
v -0.768178 0.555570 -0.318190
v -0.853553 0.382683 -0.353553
v -0.906127 0.195090 -0.375330
v -0.923880 0.000000 -0.382684
v -0.906127 -0.195090 -0.375330
v -0.853553 -0.382683 -0.353554
v -0.768178 -0.555570 -0.318190
v -0.653281 -0.707107 -0.270598
v -0.513280 -0.831470 -0.212608
v -0.353553 -0.923880 -0.146447
v -0.180240 -0.980785 -0.074658
v -0.162212 0.980785 -0.108387
v -0.318190 0.923880 -0.212608
v -0.461940 0.831470 -0.308658
v -0.587938 0.707107 -0.392848
v -0.691342 0.555570 -0.461940
v -0.768178 0.382683 -0.513280
v -0.815493 0.195090 -0.544895
v -0.831470 0.000000 -0.555570
v -0.815493 -0.195090 -0.544895
v -0.768178 -0.382683 -0.513280
v -0.691342 -0.555570 -0.461940
v -0.587938 -0.707107 -0.392848
v -0.461940 -0.831470 -0.308658
v -0.318189 -0.923880 -0.212608
v -0.162211 -0.980785 -0.108386
v -0.137950 0.980785 -0.137950
v -0.270598 0.923880 -0.270598
v -0.392847 0.831470 -0.392848
v -0.500000 0.707107 -0.500000
v -0.587938 0.555570 -0.587938
v -0.653281 0.382683 -0.653282
v -0.693520 0.195090 -0.693520
v -0.707107 0.000000 -0.707107
v -0.693520 -0.195090 -0.693520
v -0.653281 -0.382683 -0.653282
v -0.587938 -0.555570 -0.587938
v -0.500000 -0.707107 -0.500000
v -0.392847 -0.831470 -0.392848
v -0.270598 -0.923880 -0.270598
v -0.137949 -0.980785 -0.137950
v -0.108386 0.980785 -0.162212
v -0.212607 0.923880 -0.318190
v -0.308658 0.831470 -0.461940
v -0.392847 0.707107 -0.587938
v -0.461940 0.555570 -0.691342
v -0.513280 0.382683 -0.768178
v -0.544895 0.195090 -0.815493
v -0.555570 0.000000 -0.831470
v -0.544895 -0.195090 -0.815493
v -0.513280 -0.382683 -0.768178
v -0.461940 -0.555570 -0.691342
v -0.392847 -0.707107 -0.587938
v -0.308658 -0.831470 -0.461940
v -0.212607 -0.923880 -0.318190
v -0.108386 -0.980785 -0.162212
v -0.074658 0.980785 -0.180240
v -0.146446 0.923880 -0.353554
v -0.212607 0.831470 -0.513280
v -0.270598 0.707107 -0.653282
v -0.318189 0.555570 -0.768178
v -0.353553 0.382683 -0.853554
v -0.375330 0.195090 -0.906128
v -0.382683 0.000000 -0.923880
v -0.375330 -0.195090 -0.906128
v -0.353553 -0.382683 -0.853554
v -0.318189 -0.555570 -0.768178
v -0.270598 -0.707107 -0.653282
v -0.212607 -0.831470 -0.513280
v -0.146446 -0.923880 -0.353553
v -0.074658 -0.980785 -0.180240
v -0.038060 0.980785 -0.191342
v -0.074658 0.923880 -0.375331
v -0.108386 0.831470 -0.544895
v -0.137949 0.707107 -0.693520
v -0.162211 0.555570 -0.815493
v -0.180240 0.382683 -0.906128
v -0.191341 0.195090 -0.961940
v -0.195090 0.000000 -0.980785
v -0.191341 -0.195090 -0.961940
v -0.180240 -0.382683 -0.906128
v -0.162211 -0.555570 -0.815493
v -0.137949 -0.707107 -0.693520
v -0.108386 -0.831470 -0.544895
v -0.074658 -0.923880 -0.375330
v -0.038060 -0.980785 -0.191342
v 0.000000 0.980785 -0.195091
v 0.000000 0.923880 -0.382684
v 0.000000 0.831470 -0.555570
v 0.000000 0.707107 -0.707107
v 0.000000 0.555570 -0.831470
v 0.000000 0.382683 -0.923880
v 0.000000 0.195090 -0.980785
v 0.000000 0.000000 -1.000000
v 0.000000 -0.195090 -0.980785
v 0.000000 -0.382683 -0.923880
v 0.000000 -0.555570 -0.831470
v 0.000000 -0.707107 -0.707107
v 0.000000 -0.831470 -0.555570
v 0.000000 -0.923880 -0.382684
v 0.000000 -0.980785 -0.195090
v 0.038061 0.980785 -0.191342
v 0.074658 0.923880 -0.375330
v 0.108387 0.831470 -0.544895
v 0.137950 0.707107 -0.693520
v 0.162212 0.555570 -0.815493
v 0.180240 0.382683 -0.906128
v 0.191342 0.195090 -0.961940
v 0.195091 0.000000 -0.980785
v 0.191342 -0.195090 -0.961940
v 0.180240 -0.382683 -0.906128
v 0.162212 -0.555570 -0.815493
v 0.137950 -0.707107 -0.693520
v 0.108387 -0.831470 -0.544895
v 0.074658 -0.923880 -0.375330
v 0.038061 -0.980785 -0.191342
v 0.074658 0.980785 -0.180240
v 0.146447 0.923880 -0.353554
v 0.212608 0.831470 -0.513280
v 0.270598 0.707107 -0.653282
v 0.318190 0.555570 -0.768178
v 0.353554 0.382683 -0.853553
v 0.375331 0.195090 -0.906127
v 0.382684 0.000000 -0.923880
v 0.375331 -0.195090 -0.906127
v 0.353554 -0.382683 -0.853553
v 0.318190 -0.555570 -0.768178
v 0.270598 -0.707107 -0.653282
v 0.212608 -0.831470 -0.513280
v 0.146447 -0.923880 -0.353553
v 0.074658 -0.980785 -0.180240
v 0.108387 0.980785 -0.162212
v 0.212608 0.923880 -0.318190
v 0.308659 0.831470 -0.461940
v 0.392848 0.707107 -0.587938
v 0.461940 0.555570 -0.691342
v 0.513280 0.382683 -0.768178
v 0.544895 0.195090 -0.815493
v 0.555571 0.000000 -0.831470
v 0.544895 -0.195090 -0.815493
v 0.513280 -0.382683 -0.768178
v 0.461940 -0.555570 -0.691342
v 0.392848 -0.707107 -0.587938
v 0.308659 -0.831470 -0.461940
v 0.212608 -0.923880 -0.318190
v 0.108387 -0.980785 -0.162212
v 0.137950 0.980785 -0.137950
v 0.270599 0.923880 -0.270598
v 0.392848 0.831470 -0.392847
v 0.500000 0.707107 -0.500000
v 0.587938 0.555570 -0.587938
v 0.653282 0.382683 -0.653281
v 0.693520 0.195090 -0.693520
v 0.707107 0.000000 -0.707107
v 0.693520 -0.195090 -0.693520
v 0.653282 -0.382683 -0.653281
v 0.587938 -0.555570 -0.587938
v 0.500000 -0.707107 -0.500000
v 0.392848 -0.831470 -0.392847
v 0.270598 -0.923880 -0.270598
v 0.137950 -0.980785 -0.137950
v 0.162212 0.980785 -0.108387
v 0.318190 0.923880 -0.212608
v 0.461940 0.831470 -0.308658
v 0.587938 0.707107 -0.392847
v 0.691342 0.555570 -0.461940
v 0.768178 0.382683 -0.513280
v 0.815493 0.195090 -0.544895
v 0.831470 0.000000 -0.555570
v 0.815493 -0.195090 -0.544895
v 0.768178 -0.382683 -0.513280
v 0.691342 -0.555570 -0.461940
v 0.587938 -0.707107 -0.392847
v 0.461940 -0.831470 -0.308658
v 0.318190 -0.923880 -0.212608
v 0.162212 -0.980785 -0.108386
v 0.180241 0.980785 -0.074658
v 0.353554 0.923880 -0.146447
v 0.513280 0.831470 -0.212607
v 0.653282 0.707107 -0.270598
v 0.768178 0.555570 -0.318190
v 0.853554 0.382683 -0.353553
v 0.906128 0.195090 -0.375330
v 0.923880 0.000000 -0.382683
v 0.906128 -0.195090 -0.375330
v 0.853554 -0.382683 -0.353553
v 0.768178 -0.555570 -0.318190
v 0.653282 -0.707107 -0.270598
v 0.513280 -0.831470 -0.212607
v 0.353554 -0.923880 -0.146447
v 0.180240 -0.980785 -0.074658
v 0.191342 0.980785 -0.038060
v 0.375331 0.923880 -0.074658
v 0.544895 0.831470 -0.108386
v 0.693520 0.707107 -0.137950
v 0.815493 0.555570 -0.162212
v 0.906128 0.382683 -0.180240
v 0.961940 0.195090 -0.191342
v 0.980785 0.000000 -0.195090
v 0.961940 -0.195090 -0.191342
v 0.906128 -0.382683 -0.180240
v 0.815493 -0.555570 -0.162212
v 0.693520 -0.707107 -0.137950
v 0.544895 -0.831470 -0.108386
v 0.375331 -0.923880 -0.074658
v 0.191342 -0.980785 -0.038060
v 0.195091 0.980785 0.000000
v 0.382684 0.923880 0.000000
v 0.555570 0.831470 0.000000
v 0.707107 0.707107 0.000000
v 0.831470 0.555570 0.000000
v 0.923880 0.382683 0.000000
v 0.980785 0.195090 0.000000
v 1.000000 0.000000 0.000000
v 0.980785 -0.195090 0.000000
v 0.923880 -0.382683 0.000000
v 0.831470 -0.555570 0.000000
v 0.707107 -0.707107 0.000000
v 0.555570 -0.831470 0.000000
v 0.382684 -0.923880 0.000000
v 0.195091 -0.980785 0.000000
v 0.191342 0.980785 0.038060
v 0.375331 0.923880 0.074658
v 0.544895 0.831470 0.108386
v 0.693520 0.707107 0.137950
v 0.815493 0.555570 0.162212
v 0.906128 0.382683 0.180240
v 0.961940 0.195090 0.191342
v 0.980785 0.000000 0.195090
v 0.961940 -0.195090 0.191342
v 0.906128 -0.382683 0.180240
v 0.815493 -0.555570 0.162212
v 0.693520 -0.707107 0.137950
v 0.544895 -0.831470 0.108386
v 0.375331 -0.923880 0.074658
v 0.191342 -0.980785 0.038060
v 0.180240 0.980785 0.074658
v 0.353554 0.923880 0.146447
v 0.513280 0.831470 0.212608
v 0.653282 0.707107 0.270598
v 0.768178 0.555570 0.318190
v 0.853554 0.382683 0.353553
v 0.906127 0.195090 0.375330
v 0.923880 0.000000 0.382684
v 0.906128 -0.195090 0.375330
v 0.853553 -0.382683 0.353553
v 0.768178 -0.555570 0.318190
v 0.653282 -0.707107 0.270598
v 0.513280 -0.831470 0.212608
v 0.353554 -0.923880 0.146447
v 0.180240 -0.980785 0.074658
v 0.162212 0.980785 0.108387
v 0.318190 0.923880 0.212608
v 0.461940 0.831470 0.308658
v 0.587938 0.707107 0.392847
v 0.691342 0.555570 0.461940
v 0.768178 0.382683 0.513280
v 0.815493 0.195090 0.544895
v 0.831470 0.000000 0.555570
v 0.815493 -0.195090 0.544895
v 0.768178 -0.382683 0.513280
v 0.691342 -0.555570 0.461940
v 0.587938 -0.707107 0.392847
v 0.461940 -0.831470 0.308658
v 0.318190 -0.923880 0.212608
v 0.162212 -0.980785 0.108386
v 0.137950 0.980785 0.137950
v 0.270598 0.923880 0.270598
v 0.392848 0.831470 0.392847
v 0.500000 0.707107 0.500000
v 0.587938 0.555570 0.587938
v 0.653282 0.382683 0.653281
v 0.693520 0.195090 0.693520
v 0.707107 0.000000 0.707107
v 0.693520 -0.195090 0.693520
v 0.653282 -0.382683 0.653281
v 0.587938 -0.555570 0.587938
v 0.500000 -0.707107 0.500000
v 0.392848 -0.831470 0.392847
v 0.270598 -0.923880 0.270598
v 0.137950 -0.980785 0.137950
v 0.108387 0.980785 0.162212
v 0.212608 0.923880 0.318190
v 0.308658 0.831470 0.461940
v 0.392848 0.707107 0.587938
v 0.461940 0.555570 0.691342
v 0.513280 0.382683 0.768178
v 0.544895 0.195090 0.815493
v 0.555570 0.000000 0.831470
v 0.544895 -0.195090 0.815493
v 0.513280 -0.382683 0.768178
v 0.461940 -0.555570 0.691342
v 0.392848 -0.707107 0.587938
v 0.308658 -0.831470 0.461940
v 0.212608 -0.923880 0.318190
v 0.108387 -0.980785 0.162212
v 0.000000 -1.000000 0.000000
v 0.074658 0.980785 0.180240
v 0.146447 0.923880 0.353554
v 0.212608 0.831470 0.513280
v 0.270598 0.707107 0.653281
v 0.318190 0.555570 0.768178
v 0.353553 0.382683 0.853553
v 0.375330 0.195090 0.906127
v 0.382683 0.000000 0.923879
v 0.375330 -0.195090 0.906127
v 0.353554 -0.382683 0.853553
v 0.318190 -0.555570 0.768178
v 0.270598 -0.707107 0.653281
v 0.212608 -0.831470 0.513280
v 0.146447 -0.923880 0.353553
v 0.074658 -0.980785 0.180240
v 0.038061 0.980785 0.191342
v 0.074658 0.923880 0.375330
v 0.108387 0.831470 0.544895
v 0.137950 0.707107 0.693520
v 0.162212 0.555570 0.815493
v 0.180240 0.382683 0.906127
v 0.191342 0.195090 0.961939
v 0.195090 0.000000 0.980785
v 0.191342 -0.195090 0.961939
v 0.180240 -0.382683 0.906127
v 0.162212 -0.555570 0.815493
v 0.137950 -0.707107 0.693520
v 0.108387 -0.831470 0.544895
v 0.074658 -0.923880 0.375330
v 0.038061 -0.980785 0.191342
v 0.000000 0.980785 0.195091
v 0.000000 0.923880 0.382683
v 0.000000 0.831470 0.555570
v 0.000000 0.707107 0.707107
v 0.000000 0.555570 0.831469
v 0.000000 0.382683 0.923879
v 0.000000 0.195090 0.980785
v 0.000000 0.000000 1.000000
v 0.000000 -0.195090 0.980785
v 0.000000 -0.382683 0.923879
v 0.000000 -0.555570 0.831469
v 0.000000 -0.707107 0.707107
v 0.000000 -0.831470 0.555570
v 0.000000 -0.923880 0.382683
v 0.000000 -0.980785 0.195090
v -0.038060 0.980785 0.191342
v -0.074658 0.923880 0.375330
v -0.108386 0.831470 0.544895
v -0.137949 0.707107 0.693520
v -0.162211 0.555570 0.815493
v -0.180240 0.382683 0.906127
v -0.191341 0.195090 0.961939
v -0.195090 0.000000 0.980785
v -0.191342 -0.195090 0.961939
v -0.180240 -0.382683 0.906127
v -0.162211 -0.555570 0.815493
v -0.137949 -0.707107 0.693520
v -0.108386 -0.831470 0.544895
v -0.074658 -0.923880 0.375330
v -0.038060 -0.980785 0.191342
v -0.074658 0.980785 0.180240
v -0.146446 0.923880 0.353553
v -0.212607 0.831470 0.513280
v -0.270598 0.707107 0.653281
v -0.318189 0.555570 0.768177
v -0.353553 0.382683 0.853553
v -0.375330 0.195090 0.906127
v -0.382683 0.000000 0.923879
v -0.375330 -0.195090 0.906127
v -0.353553 -0.382683 0.853553
v -0.318189 -0.555570 0.768177
v -0.270598 -0.707107 0.653281
v -0.212607 -0.831470 0.513280
v -0.146446 -0.923880 0.353553
v -0.074658 -0.980785 0.180240
v -0.108386 0.980785 0.162212
v -0.212607 0.923880 0.318190
v -0.308658 0.831470 0.461939
v -0.392847 0.707107 0.587937
v -0.461939 0.555570 0.691341
v -0.513280 0.382683 0.768177
v -0.544895 0.195090 0.815493
v -0.555570 0.000000 0.831469
v -0.544895 -0.195090 0.815493
v -0.513279 -0.382683 0.768177
v -0.461939 -0.555570 0.691341
v -0.392847 -0.707107 0.587937
v -0.308658 -0.831470 0.461939
v -0.212607 -0.923880 0.318189
v -0.108386 -0.980785 0.162212
v -0.137950 0.980785 0.137950
v -0.270598 0.923880 0.270598
v -0.392847 0.831470 0.392847
v -0.500000 0.707107 0.500000
v -0.587937 0.555570 0.587937
v -0.653281 0.382683 0.653281
v -0.693519 0.195090 0.693519
v -0.707106 0.000000 0.707106
v -0.693520 -0.195090 0.693519
v -0.653281 -0.382683 0.653281
v -0.587937 -0.555570 0.587937
v -0.500000 -0.707107 0.500000
v -0.392847 -0.831470 0.392847
v -0.270598 -0.923880 0.270598
v -0.137949 -0.980785 0.137950
v -0.162212 0.980785 0.108386
v -0.318189 0.923880 0.212607
v -0.461939 0.831470 0.308658
v -0.587937 0.707107 0.392847
v -0.691341 0.555570 0.461939
v -0.768177 0.382683 0.513279
v -0.815492 0.195090 0.544895
v -0.831469 0.000000 0.555570
v -0.815493 -0.195090 0.544895
v -0.768177 -0.382683 0.513280
v -0.691341 -0.555570 0.461939
v -0.587937 -0.707107 0.392847
v -0.461939 -0.831470 0.308658
v -0.318189 -0.923880 0.212607
v -0.162211 -0.980785 0.108386
v 0.000000 1.000000 0.000000
v -0.180240 0.980785 0.074658
v -0.353553 0.923880 0.146446
v -0.513279 0.831470 0.212607
v -0.653281 0.707107 0.270598
v -0.768177 0.555570 0.318189
v -0.853553 0.382683 0.353553
v -0.906127 0.195090 0.375330
v -0.923879 0.000000 0.382683
v -0.906127 -0.195090 0.375330
v -0.853553 -0.382683 0.353553
v -0.768177 -0.555570 0.318189
v -0.653281 -0.707107 0.270598
v -0.513279 -0.831470 0.212607
v -0.353553 -0.923880 0.146446
v -0.180240 -0.980785 0.074658
v -0.191342 0.980785 0.038060
v -0.375330 0.923880 0.074658
v -0.544895 0.831470 0.108386
v -0.693519 0.707107 0.137949
v -0.815493 0.555570 0.162211
v -0.906127 0.382683 0.180240
v -0.961939 0.195090 0.191341
v -0.980784 0.000000 0.195090
v -0.961939 -0.195090 0.191341
v -0.906127 -0.382683 0.180240
v -0.815493 -0.555570 0.162211
v -0.693519 -0.707107 0.137949
v -0.544895 -0.831470 0.108386
v -0.375330 -0.923880 0.074658
v -0.191341 -0.980785 0.038060
vt -0.619930 -0.478272
vt -0.600587 -0.286012
vt -0.709483 -0.450519
vt -0.473155 0.473029
vt -0.387692 0.651723
vt -0.619204 0.519562
vt -0.639059 -0.670575
vt -0.720471 -0.645332
vt -0.521671 0.286622
vt -0.650571 0.327051
vt -0.659461 -0.862626
vt -0.732082 -0.840075
vt -0.554425 0.097029
vt -0.670779 0.133275
vt 0.236153 0.864752
vt 0.595654 0.764945
vt 0.306856 0.936335
vt -0.683046 -1.054047
vt -0.745399 -1.034627
vt -0.579472 -0.094101
vt -0.685810 -0.061083
vt -0.196392 0.805820
vt -0.377599 0.883174
vt -0.712943 -1.244212
vt -0.762181 -1.228789
vt -0.698247 -0.255734
vt -0.558267 0.708678
vt -0.755451 -1.431840
vt -0.786004 -1.422155
vt 2.350679 -1.422155
vt 2.374502 -1.228789
vt 2.319581 -1.417857
vt -0.799987 -0.438074
vt -0.778934 0.541609
vt -0.802463 -0.634054
vt -0.786433 0.345755
vt -0.805069 -0.830032
vt -0.791146 0.149831
vt 0.652461 0.785656
vt 0.593005 0.988208
vt -0.808048 -1.025999
vt -0.794605 -0.046124
vt -0.704034 0.931802
vt 2.391284 -1.034627
vt 2.324891 -1.221948
vt -0.797441 -0.242095
vt -0.763490 0.737263
vt 2.328635 -1.025999
vt 2.275197 -1.223796
vt 2.339242 -0.242095
vt 2.342077 -0.046124
vt 2.239684 -0.245794
vt 2.373193 0.737263
vt 2.432649 0.931802
vt 2.157495 0.729288
vt 2.288362 -1.419019
vt 2.336696 -0.438074
vt 2.245968 -0.441445
vt 2.357749 0.541609
vt 2.194418 0.535556
vt 2.334220 -0.634054
vt 2.252090 -0.637107
vt 2.350250 0.345755
vt 2.212653 0.340651
vt 2.331613 -0.830032
vt 2.258538 -0.832748
vt 2.345536 0.149831
vt 2.224195 0.145327
vt 0.721382 0.795441
vt 1.057844 0.971178
vt 2.265917 -1.028332
vt 2.232696 -0.050186
vt 2.027396 0.917020
vt 0.793423 0.792757
vt 1.220733 0.906789
vt 2.203367 -1.041579
vt 2.124743 -0.073004
vt 1.772787 0.852119
vt 2.225709 -1.234306
vt 2.141014 -0.266638
vt 1.965631 0.687265
vt 2.257443 -1.425621
vt 2.155788 -0.460494
vt 2.039613 0.502446
vt 2.170295 -0.654390
vt 2.079229 0.312324
vt 2.185676 -0.848157
vt 2.105213 0.120143
vt 1.954303 0.263791
vt 2.113279 -0.875871
vt 1.991230 0.076299
vt 0.858031 0.778045
vt 1.255958 0.833038
vt 2.141200 -1.065485
vt 2.019881 -0.113144
vt 1.626926 0.769872
vt 2.176717 -1.253311
vt 2.044284 -0.303580
vt 1.810726 0.621720
vt 2.227255 -1.437549
vt 2.066813 -0.494453
vt 1.900865 0.447327
vt 2.089235 -0.685351
vt 1.979441 -0.542023
vt 1.779326 0.376629
vt 2.009139 -0.729035
vt 1.839569 0.199396
vt 2.041491 -0.915220
vt 1.883604 0.016905
vt 0.908189 0.753486
vt 1.251472 0.758155
vt 2.079568 -1.099603
vt 1.919079 -0.168299
vt 1.526535 0.682990
vt 2.128495 -1.280524
vt 1.950136 -0.354888
vt 1.686775 0.542858
vt 2.198253 -1.454593
vt 2.081311 -1.315540
vt 1.858715 -0.418368
vt 1.583969 0.457599
vt 2.170943 -1.476452
vt 1.893733 -0.601511
vt 1.672403 0.296165
vt 1.930006 -0.784175
vt 1.734538 0.123686
vt 1.970296 -0.965296
vt 1.782424 -0.054479
vt 0.942054 0.721961
vt 1.230432 0.684551
vt 2.018533 -1.143322
vt 1.822525 -0.235672
vt 1.446503 0.595948
vt 0.961139 0.686186
vt 1.200798 0.613481
vt 1.958040 -1.195903
vt 1.729758 -0.312304
vt 1.376579 0.510916
vt 2.035429 -1.357862
vt 1.769687 -0.491589
vt 2.145902 -1.502725
vt 1.809395 -0.670972
vt 1.576490 0.210519
vt 1.851558 -0.849272
vt 1.637554 0.040785
vt 1.899477 -1.025010
vt 1.686877 -0.134322
vt 1.546597 -0.045780
vt 1.828567 -1.093138
vt 1.595669 -0.219342
vt 0.968106 0.648376
vt 1.165937 0.545870
vt 1.897881 -1.256510
vt 1.639862 -0.395270
vt 1.311960 0.429318
vt 1.991124 -1.406914
vt 1.682322 -0.572030
vt 1.494690 0.370310
vt 1.413855 0.283899
vt 2.123821 -1.532915
vt 1.725784 -0.748309
vt 1.488283 0.123208
vt 1.773218 -0.922669
vt 1.641940 -0.831326
vt 1.405124 0.036999
vt 1.694080 -1.002583
vt 1.459712 -0.133004
vt 1.756798 -1.168351
vt 1.507332 -0.306551
vt 0.965563 0.610248
vt 1.127495 0.482519
vt 1.837655 -1.324243
vt 1.551658 -0.481748
vt 1.250110 0.352301
vt 1.948721 -1.462061
vt 1.595590 -0.657141
vt 2.105556 -1.566408
vt 1.908656 -1.522622
vt 1.508239 -0.744346
vt 1.338150 0.200505
vt 1.189563 0.280898
vt 2.092206 -1.602458
vt 1.556602 -0.917718
vt 1.324975 -0.045804
vt 1.612865 -1.087094
vt 1.375182 -0.218252
vt 1.683000 -1.249208
vt 1.420409 -0.393184
vt 0.955661 0.573130
vt 1.086372 0.424173
vt 1.776689 -1.398153
vt 1.463838 -0.569005
vt 1.713887 -1.477247
vt 1.375070 -0.654328
vt 1.129430 0.216080
vt 1.871596 -1.587877
vt 1.418864 -0.830973
vt 1.265389 0.121862
vt 1.194102 0.049491
vt 2.085201 -1.640147
vt 1.468212 -1.005001
vt 1.246309 -0.123175
vt 1.527843 -1.174075
vt 1.605436 -1.334114
vt 1.333550 -0.476623
vt 0.940069 0.538065
vt 1.043116 0.371536
vt 1.521502 -1.421193
vt 1.291574 -0.299130
vt 1.245588 -0.554306
vt 0.920064 0.505893
vt 0.998105 0.325270
vt 1.647416 -1.560455
vt 1.284087 -0.734953
vt 1.069165 0.158777
vt 1.838688 -1.657061
vt 1.325987 -0.914175
vt 1.123305 -0.015218
vt 2.086407 -1.678321
vt 1.374942 -1.090404
vt 1.168014 -0.193255
vt 1.436725 -1.261053
vt 1.089327 -0.254315
vt 1.336570 -1.344981
vt 1.207754 -0.373383
vt 1.427227 -1.508039
vt 1.155612 -0.623693
vt 0.896631 0.477300
vt 0.951637 0.285986
vt 1.573989 -1.646542
vt 1.189801 -0.808012
vt 1.008457 0.109865
vt 1.812131 -1.729332
vt 1.228184 -0.990841
vt 2.098187 -1.715503
vt 1.274777 -1.170714
vt 1.124322 -1.057570
vt 1.052368 -0.070979
vt 0.980935 -0.116620
vt 2.123255 -1.749774
vt 1.165780 -1.242152
vt 1.009803 -0.304758
vt 1.223862 -1.421927
vt 1.122892 -0.438855
vt 1.316531 -1.591232
vt 1.063046 -0.682288
vt 0.870549 0.452848
vt 0.903980 0.254231
vt 1.487086 -1.733857
vt 1.091464 -0.870551
vt 0.947168 0.070142
vt 1.796681 -1.803667
vt 1.371949 -1.819569
vt 0.988869 -0.919647
vt 0.885295 0.040298
vt 1.804493 -1.878501
vt 1.013916 -1.110778
vt 0.908880 -0.151123
vt 2.163995 -1.778694
vt 1.046671 -1.300371
vt 0.929283 -0.343174
vt 1.095186 -1.486777
vt 1.036493 -0.493504
vt 1.180650 -1.665471
vt 0.967754 -0.727737
vt 0.842455 0.432992
vt 0.855398 0.230463
vt 1.010074 -1.722426
vt 0.948411 -0.535477
vt 0.870094 -0.758015
vt 0.812891 0.418091
vt 0.806161 0.215039
vt 1.190743 -1.896923
vt 0.882531 -0.952665
vt 0.822943 0.020878
vt 1.875197 -1.950083
vt 0.897563 -1.147024
vt 0.836260 -0.173673
vt 2.220802 -1.799404
vt 0.917770 -1.340799
vt 0.847871 -0.368417
vt 0.949138 -1.533310
vt 0.765878 -0.379694
vt 0.789407 -1.555358
vt 0.858858 -0.563230
vt 0.768355 -0.575675
vt 0.804851 -1.751012
vt 0.770900 -0.771653
vt 0.782338 0.408406
vt 0.756550 0.208199
vt 0.864308 -1.945551
vt 0.773736 -0.967624
vt 0.760294 0.012251
vt 2.161344 -2.001958
vt 0.777195 -1.163580
vt 2.289723 -1.809190
vt 0.781909 -1.359504
vt 0.655854 -1.159075
vt 0.763272 -0.183717
vt 0.690197 -0.181001
vt 2.361764 -1.806505
vt 0.644312 -1.354399
vt 0.683748 -0.376642
vt 0.626077 -1.549304
vt 0.677627 -0.572303
vt 0.589154 -1.743037
vt 0.671343 -0.767955
vt 0.751240 0.404107
vt 0.706855 0.210047
vt 0.459055 -1.930769
vt 0.664355 -0.963562
vt 0.697575 0.014583
vt 2.626185 -1.984927
vt 0.204447 -1.865868
vt 0.556402 -0.940744
vt 0.635026 0.027829
vt -0.510498 -1.984927
vt -0.347608 -1.920537
vt 0.536872 -1.133892
vt 0.617335 -0.165592
vt -0.774919 -1.806505
vt -0.710311 -1.791794
vt 0.510887 -1.326073
vt 0.601954 -0.359358
vt 0.471272 -1.516195
vt 0.587447 -0.553255
vt 0.397290 -1.701014
vt 0.572673 -0.747111
vt 0.720021 0.405269
vt 0.657368 0.220556
vt 0.242385 -1.635469
vt 0.475943 -0.710168
vt 0.689102 0.411871
vt 0.608375 0.239562
vt 0.058585 -1.783621
vt 0.451540 -0.900605
vt 0.572859 0.051736
vt -0.312384 -1.846787
vt 0.422889 -1.090048
vt 0.544938 -0.137878
vt -0.660153 -1.767235
vt 0.520893 -0.328398
vt 0.332524 -1.461076
vt 0.498472 -0.519296
vt 0.385962 -1.277540
vt 0.210986 -1.390378
vt 0.411100 -0.471726
vt 0.118434 -1.556607
vt 0.381795 -0.658861
vt 0.658913 0.423799
vt 0.560154 0.266775
vt -0.041806 -1.696739
vt 0.350738 -0.845450
vt 0.511227 0.085854
vt -0.316869 -1.771904
vt 0.315263 -1.030654
vt 0.473150 -0.098529
vt -0.626288 -1.735710
vt 0.440798 -0.284714
vt 0.401955 -0.048453
vt -0.607203 -1.699935
vt 0.271228 -1.213145
vt 0.214083 -0.959270
vt 0.361665 -0.229574
vt 0.104062 -1.309914
vt 0.325392 -0.412238
vt 0.015628 -1.471348
vt 0.290374 -0.595381
vt 0.629912 0.440844
vt 0.512970 0.301791
vt -0.121839 -1.609697
vt 0.254184 -0.778077
vt 0.450192 0.129574
vt -0.337909 -1.698301
vt 0.161417 -0.701445
vt 0.389699 0.182154
vt -0.367544 -1.627231
vt 0.118535 -0.879427
vt 0.331136 0.011261
vt -0.600236 -1.662125
vt 0.166198 -1.137435
vt 0.283217 -0.164477
vt 0.008149 -1.224269
vt 0.241054 -0.342777
vt -0.073651 -1.384059
vt 0.201346 -0.522159
vt 0.602602 0.462702
vt 0.467088 0.344113
vt -0.191762 -1.524665
vt -0.154486 -1.297648
vt 0.113981 -0.441719
vt 0.577561 0.488976
vt 0.422783 0.393165
vt -0.256381 -1.443067
vt 0.071521 -0.618479
vt 0.329540 0.242761
vt -0.402405 -1.559620
vt 0.027328 -0.794406
vt 0.260226 0.079389
vt -0.602779 -1.623998
vt 0.069213 -1.054534
vt 0.204877 -0.091080
vt -0.080058 -1.136957
vt 0.157443 -0.265439
vt -0.021744 -0.967969
vt -0.163217 -1.050748
vt 0.073599 -0.182422
vt -0.230191 -1.214254
vt 0.027249 -0.356607
vt 0.555480 0.519166
vt 0.380380 0.448312
vt -0.318231 -1.366051
vt -0.016683 -0.532001
vt 0.269314 0.310494
vt -0.440847 -1.496269
vt -0.061009 -0.707198
vt -0.612681 -1.586880
vt 0.125739 -0.011165
vt 0.188457 0.154602
vt 0.114659 0.235460
vt -0.628273 -1.551815
vt -0.108629 -0.880746
vt -0.147932 -0.620564
vt 0.044524 0.073345
vt -0.243366 -0.967945
vt -0.011739 -0.096031
vt -0.302952 -1.135611
vt -0.060102 -0.269403
vt 0.537215 0.552659
vt 0.340315 0.508873
vt -0.378778 -1.294647
vt -0.104503 -0.444744
vt 0.208348 0.384405
vt -0.481969 -1.437923
vt -0.193271 -0.359421
vt 0.145547 0.463499
vt -0.525225 -1.385285
vt -0.234792 -0.537125
vt -0.648277 -1.519643
vt -0.193159 -0.795497
vt -0.040498 0.160326
vt -0.322032 -0.890575
vt -0.100129 -0.008747
vt -0.374239 -1.063240
vt 0.523865 0.588709
vt 0.303255 0.574128
vt -0.438912 -1.229829
vt -0.445036 -0.998531
vt -0.149477 -0.182776
vt -0.193400 0.076656
vt 0.516860 0.626398
vt 0.270347 0.643312
vt -0.499176 -1.172527
vt -0.284254 -0.278796
vt 0.079076 0.546707
vt -0.570236 -1.339019
vt -0.322753 -0.459442
vt 0.037095 0.320366
vt -0.671710 -1.491050
vt -0.276767 -0.714619
vt -0.131616 0.247304
vt -0.400328 -0.820494
vt -0.360587 -0.640366
vt -0.479014 -0.759434
vt -0.293564 0.156966
vt -0.515973 -0.942770
vt -0.242354 -0.099574
vt 0.518066 0.664572
vt 0.243791 0.715583
vt -0.559884 -1.123615
vt -0.378541 -0.205736
vt 0.005649 0.632794
vt -0.616704 -1.299736
vt -0.412730 -0.390055
vt -0.046839 0.407444
vt -0.141114 0.494290
vt -0.697792 -1.466598
vt -0.231771 0.331232
vt -0.725887 -1.446742
vt -0.445449 -0.574894
vt -0.505295 -0.331461
vt -0.344479 0.408179
vt -0.558539 -0.708991
vt -0.402561 0.228404
vt -0.587406 -0.897129
vt -0.340157 -0.022908
vt 0.529846 0.701754
vt 0.228341 0.789919
vt -0.621173 -1.083892
vt -0.476877 -0.143197
vt -0.081255 0.720109
vt -0.664361 -1.267980
vt 2.310599 -1.613673
vt 2.381232 -1.431840
vt 0.742258 0.599924
vt 2.426372 -1.791794
vt 2.476530 -1.767235
vt 2.510395 -1.735710
vt 2.529480 -1.699935
vt 2.536447 -1.662125
vt 2.533904 -1.623998
vt 2.524002 -1.586880
vt 2.508410 -1.551815
vt 2.488405 -1.519643
vt 2.464973 -1.491050
vt 2.438890 -1.466598
vt 2.410796 -1.446742
vt 0.554914 0.736025
vt -0.251810 0.577484
vt -0.531849 -0.520245
vt -0.444019 0.043822
vt 3.595738 -1.930769
vn -0.952718 -0.289004 -0.093835
vn -0.770780 0.632563 -0.075916
vn -0.878613 -0.469628 -0.086536
vn -0.878613 0.469628 -0.086536
vn -0.770780 -0.632563 -0.075915
vn -0.952718 0.289004 -0.093835
vn -0.290166 0.956549 -0.028579
vn -0.633159 -0.771506 -0.062361
vn -0.990438 0.097550 -0.097549
vn -0.470889 0.880972 -0.046379
vn -0.470889 -0.880972 -0.046379
vn -0.990438 -0.097550 -0.097550
vn -0.633159 0.771506 -0.062360
vn -0.290166 -0.956550 -0.028579
vn -0.279015 -0.956550 -0.084638
vn -0.916106 -0.289004 -0.277898
vn -0.741159 0.632562 -0.224828
vn -0.844848 -0.469628 -0.256282
vn -0.844848 0.469628 -0.256282
vn -0.741159 -0.632563 -0.224828
vn -0.916106 0.289004 -0.277898
vn -0.279015 0.956550 -0.084638
vn -0.608827 -0.771506 -0.184686
vn -0.952376 0.097550 -0.288900
vn -0.452794 0.880972 -0.137354
vn -0.452793 -0.880972 -0.137353
vn -0.952376 -0.097550 -0.288900
vn -0.608826 0.771506 -0.184686
vn -0.417297 -0.880972 -0.223050
vn -0.877715 -0.097550 -0.469149
vn -0.561098 0.771506 -0.299913
vn -0.257142 -0.956550 -0.137445
vn -0.844288 -0.289004 -0.451281
vn -0.683056 0.632563 -0.365101
vn -0.778617 -0.469628 -0.416180
vn -0.778617 0.469628 -0.416179
vn -0.683056 -0.632563 -0.365101
vn -0.844288 0.289004 -0.451281
vn -0.257142 0.956549 -0.137445
vn -0.561098 -0.771506 -0.299913
vn -0.877715 0.097550 -0.469149
vn -0.417297 0.880972 -0.223050
vn -0.225387 0.956549 -0.184970
vn -0.491806 -0.771506 -0.403615
vn -0.769324 0.097550 -0.631368
vn -0.365764 0.880972 -0.300175
vn -0.365764 -0.880972 -0.300175
vn -0.769324 -0.097550 -0.631368
vn -0.491806 0.771506 -0.403615
vn -0.225386 -0.956550 -0.184970
vn -0.740025 -0.289004 -0.607322
vn -0.598704 0.632562 -0.491344
vn -0.682463 -0.469628 -0.560083
vn -0.682463 0.469628 -0.560083
vn -0.598704 -0.632563 -0.491344
vn -0.740024 0.289004 -0.607322
vn -0.560083 0.469628 -0.682463
vn -0.491343 -0.632563 -0.598704
vn -0.607322 0.289004 -0.740025
vn -0.184970 0.956549 -0.225387
vn -0.403615 -0.771506 -0.491807
vn -0.631367 0.097550 -0.769324
vn -0.300175 0.880972 -0.365764
vn -0.300175 -0.880972 -0.365764
vn -0.631367 -0.097550 -0.769324
vn -0.403615 0.771506 -0.491806
vn -0.184970 -0.956550 -0.225386
vn -0.607322 -0.289004 -0.740025
vn -0.491343 0.632563 -0.598704
vn -0.560083 -0.469628 -0.682464
vn -0.451281 -0.289004 -0.844288
vn -0.365101 0.632562 -0.683056
vn -0.416179 -0.469628 -0.778617
vn -0.416179 0.469628 -0.778617
vn -0.365101 -0.632563 -0.683056
vn -0.451281 0.289004 -0.844288
vn -0.137445 0.956549 -0.257142
vn -0.299913 -0.771506 -0.561098
vn -0.469148 0.097550 -0.877715
vn -0.223050 0.880972 -0.417297
vn -0.223050 -0.880972 -0.417297
vn -0.469148 -0.097550 -0.877715
vn -0.299913 0.771506 -0.561098
vn -0.137445 -0.956550 -0.257142
vn -0.137353 -0.880972 -0.452793
vn -0.288900 -0.097550 -0.952376
vn -0.184685 0.771506 -0.608827
vn -0.084638 -0.956550 -0.279015
vn -0.277898 -0.289004 -0.916106
vn -0.224828 0.632562 -0.741159
vn -0.256282 -0.469628 -0.844849
vn -0.256282 0.469628 -0.844848
vn -0.224828 -0.632563 -0.741159
vn -0.277897 0.289004 -0.916106
vn -0.084638 0.956549 -0.279015
vn -0.184686 -0.771506 -0.608827
vn -0.288900 0.097550 -0.952376
vn -0.137353 0.880972 -0.452794
vn -0.028579 0.956549 -0.290166
vn -0.062360 -0.771506 -0.633159
vn -0.097549 0.097550 -0.990438
vn -0.046378 0.880972 -0.470890
vn -0.046379 -0.880972 -0.470889
vn -0.097550 -0.097550 -0.990438
vn -0.062360 0.771506 -0.633158
vn -0.028579 -0.956550 -0.290166
vn -0.093834 -0.289004 -0.952718
vn -0.075915 0.632562 -0.770780
vn -0.086536 -0.469628 -0.878613
vn -0.086536 0.469628 -0.878613
vn -0.075915 -0.632563 -0.770780
vn -0.093834 0.289004 -0.952718
vn 0.086536 0.469628 -0.878613
vn 0.075915 -0.632563 -0.770780
vn 0.093835 0.289004 -0.952718
vn 0.028579 0.956549 -0.290166
vn 0.062361 -0.771506 -0.633159
vn 0.097550 0.097550 -0.990438
vn 0.046379 0.880972 -0.470890
vn 0.046379 -0.880972 -0.470890
vn 0.097550 -0.097550 -0.990438
vn 0.062361 0.771506 -0.633158
vn 0.028579 -0.956550 -0.290166
vn 0.093835 -0.289004 -0.952718
vn 0.075915 0.632562 -0.770780
vn 0.086536 -0.469628 -0.878613
vn 0.277898 -0.289004 -0.916106
vn 0.224829 0.632562 -0.741159
vn 0.256282 -0.469628 -0.844849
vn 0.256282 0.469628 -0.844848
vn 0.224828 -0.632563 -0.741159
vn 0.277898 0.289004 -0.916106
vn 0.084638 0.956549 -0.279015
vn 0.184686 -0.771506 -0.608827
vn 0.288900 0.097550 -0.952376
vn 0.137354 0.880972 -0.452794
vn 0.137354 -0.880972 -0.452794
vn 0.288900 -0.097550 -0.952376
vn 0.184686 0.771506 -0.608826
vn 0.084638 -0.956550 -0.279015
vn 0.223050 -0.880972 -0.417297
vn 0.469149 -0.097550 -0.877715
vn 0.299913 0.771506 -0.561098
vn 0.137445 -0.956550 -0.257142
vn 0.451281 -0.289004 -0.844288
vn 0.365101 0.632562 -0.683056
vn 0.416180 -0.469628 -0.778617
vn 0.416180 0.469628 -0.778617
vn 0.365101 -0.632563 -0.683056
vn 0.451282 0.289004 -0.844288
vn 0.137445 0.956549 -0.257142
vn 0.299913 -0.771506 -0.561098
vn 0.469149 0.097550 -0.877715
vn 0.223050 0.880972 -0.417297
vn 0.403616 -0.771506 -0.491807
vn 0.631368 0.097550 -0.769323
vn 0.300175 0.880972 -0.365764
vn 0.300175 -0.880972 -0.365764
vn 0.631368 -0.097550 -0.769324
vn 0.403615 0.771506 -0.491806
vn 0.184970 -0.956550 -0.225387
vn 0.607323 -0.289004 -0.740024
vn 0.491344 0.632562 -0.598704
vn 0.560084 -0.469628 -0.682463
vn 0.560084 0.469628 -0.682463
vn 0.491344 -0.632563 -0.598704
vn 0.607323 0.289004 -0.740024
vn 0.184970 0.956549 -0.225387
vn 0.598704 -0.632563 -0.491343
vn 0.740025 0.289004 -0.607322
vn 0.225387 0.956549 -0.184970
vn 0.491807 -0.771506 -0.403615
vn 0.769324 0.097550 -0.631367
vn 0.365764 0.880972 -0.300175
vn 0.365764 -0.880972 -0.300175
vn 0.769324 -0.097550 -0.631368
vn 0.491806 0.771506 -0.403615
vn 0.225387 -0.956550 -0.184970
vn 0.740025 -0.289004 -0.607322
vn 0.598704 0.632562 -0.491343
vn 0.682464 -0.469628 -0.560083
vn 0.682463 0.469628 -0.560083
vn 0.683057 0.632562 -0.365101
vn 0.778617 -0.469628 -0.416179
vn 0.778617 0.469629 -0.416179
vn 0.683056 -0.632562 -0.365101
vn 0.844288 0.289003 -0.451281
vn 0.257142 0.956549 -0.137445
vn 0.561098 -0.771506 -0.299913
vn 0.877715 0.097550 -0.469148
vn 0.417297 0.880972 -0.223050
vn 0.417297 -0.880972 -0.223050
vn 0.877715 -0.097550 -0.469148
vn 0.561098 0.771506 -0.299913
vn 0.257142 -0.956550 -0.137445
vn 0.844288 -0.289004 -0.451281
vn 0.952376 -0.097550 -0.288900
vn 0.608827 0.771506 -0.184685
vn 0.279015 -0.956550 -0.084638
vn 0.916106 -0.289004 -0.277898
vn 0.741159 0.632562 -0.224828
vn 0.844849 -0.469628 -0.256282
vn 0.844848 0.469629 -0.256282
vn 0.741159 -0.632563 -0.224828
vn 0.916106 0.289003 -0.277897
vn 0.279015 0.956549 -0.084638
vn 0.608827 -0.771506 -0.184685
vn 0.952376 0.097550 -0.288900
vn 0.452794 0.880972 -0.137353
vn 0.452794 -0.880972 -0.137353
vn 0.633159 -0.771506 -0.062360
vn 0.990438 0.097550 -0.097550
vn 0.470890 0.880972 -0.046378
vn 0.470890 -0.880972 -0.046378
vn 0.990438 -0.097550 -0.097549
vn 0.633158 0.771506 -0.062360
vn 0.290166 -0.956550 -0.028579
vn 0.952718 -0.289004 -0.093834
vn 0.770780 0.632562 -0.075915
vn 0.878613 -0.469628 -0.086536
vn 0.878613 0.469629 -0.086536
vn 0.770780 -0.632563 -0.075915
vn 0.952718 0.289003 -0.093834
vn 0.290166 0.956549 -0.028579
vn 0.770780 -0.632563 0.075915
vn 0.952718 0.289003 0.093835
vn 0.290166 0.956549 0.028579
vn 0.633159 -0.771506 0.062361
vn 0.990438 0.097551 0.097550
vn 0.470890 0.880972 0.046379
vn 0.470890 -0.880972 0.046379
vn 0.990438 -0.097550 0.097550
vn 0.633158 0.771506 0.062361
vn 0.290166 -0.956550 0.028579
vn 0.952718 -0.289004 0.093835
vn 0.770780 0.632562 0.075915
vn 0.878613 -0.469628 0.086536
vn 0.878613 0.469628 0.086536
vn 0.741159 0.632562 0.224828
vn 0.844849 -0.469628 0.256282
vn 0.844848 0.469628 0.256282
vn 0.741159 -0.632563 0.224829
vn 0.916106 0.289003 0.277898
vn 0.279015 0.956549 0.084638
vn 0.608827 -0.771506 0.184686
vn 0.952376 0.097551 0.288900
vn 0.452794 0.880972 0.137354
vn 0.452794 -0.880972 0.137354
vn 0.952376 -0.097550 0.288900
vn 0.608826 0.771506 0.184686
vn 0.279015 -0.956550 0.084638
vn 0.916106 -0.289004 0.277898
vn 0.877715 -0.097550 0.469149
vn 0.561098 0.771506 0.299913
vn 0.257142 -0.956550 0.137445
vn 0.844288 -0.289004 0.451281
vn 0.683056 0.632563 0.365102
vn 0.778617 -0.469628 0.416180
vn 0.778617 0.469628 0.416179
vn 0.683056 -0.632563 0.365101
vn 0.844288 0.289003 0.451282
vn 0.257142 0.956549 0.137445
vn 0.561098 -0.771506 0.299913
vn 0.877715 0.097551 0.469149
vn 0.417298 0.880972 0.223050
vn 0.417297 -0.880972 0.223050
vn 0.491807 -0.771506 0.403615
vn 0.769323 0.097551 0.631368
vn 0.365764 0.880972 0.300175
vn 0.365764 -0.880972 0.300175
vn 0.769323 -0.097550 0.631368
vn 0.491806 0.771506 0.403615
vn 0.225387 -0.956550 0.184970
vn 0.740024 -0.289004 0.607323
vn 0.598704 0.632562 0.491344
vn 0.682463 -0.469628 0.560084
vn 0.682463 0.469628 0.560083
vn 0.598704 -0.632563 0.491344
vn 0.740025 0.289003 0.607323
vn 0.225387 0.956549 0.184970
vn 0.491343 -0.632563 0.598704
vn 0.607322 0.289003 0.740025
vn 0.184970 0.956549 0.225387
vn 0.403615 -0.771506 0.491807
vn 0.631367 0.097551 0.769324
vn 0.300175 0.880972 0.365764
vn 0.300175 -0.880972 0.365764
vn 0.631367 -0.097550 0.769324
vn 0.403615 0.771506 0.491806
vn 0.184970 -0.956550 0.225387
vn 0.607322 -0.289004 0.740025
vn 0.491344 0.632562 0.598704
vn 0.560083 -0.469628 0.682464
vn 0.560083 0.469629 0.682463
vn 0.416179 -0.469627 0.778617
vn 0.416179 0.469628 0.778617
vn 0.365101 -0.632562 0.683056
vn 0.451281 0.289003 0.844288
vn 0.137445 0.956549 0.257142
vn 0.299913 -0.771506 0.561098
vn 0.469148 0.097550 0.877715
vn 0.223050 0.880972 0.417298
vn 0.223050 -0.880972 0.417297
vn 0.469148 -0.097550 0.877715
vn 0.299913 0.771506 0.561098
vn 0.137445 -0.956550 0.257142
vn 0.451281 -0.289004 0.844288
vn 0.365101 0.632562 0.683057
vn 0.184685 0.771506 0.608826
vn 0.084638 -0.956550 0.279015
vn 0.277897 -0.289004 0.916106
vn 0.224828 0.632562 0.741159
vn 0.256282 -0.469627 0.844849
vn 0.256282 0.469628 0.844848
vn 0.224828 -0.632562 0.741159
vn 0.277897 0.289003 0.916106
vn 0.084638 0.956549 0.279015
vn 0.184685 -0.771506 0.608827
vn 0.288900 0.097550 0.952376
vn 0.137353 0.880972 0.452794
vn 0.137353 -0.880972 0.452794
vn 0.288900 -0.097550 0.952376
vn 0.097549 0.097551 0.990438
vn 0.046378 0.880972 0.470890
vn 0.046378 -0.880972 0.470890
vn 0.097549 -0.097550 0.990438
vn 0.062360 0.771506 0.633158
vn 0.028579 -0.956550 0.290166
vn 0.093834 -0.289004 0.952718
vn 0.075915 0.632562 0.770780
vn 0.086535 -0.469627 0.878614
vn 0.086535 0.469628 0.878613
vn 0.075915 -0.632563 0.770780
vn 0.093834 0.289003 0.952718
vn 0.028579 0.956549 0.290166
vn 0.062360 -0.771506 0.633159
vn -0.075915 -0.632562 0.770780
vn -0.093835 0.289003 0.952718
vn -0.028579 0.956549 0.290166
vn -0.062361 -0.771506 0.633159
vn -0.097550 0.097551 0.990438
vn -0.046379 0.880972 0.470890
vn -0.046379 -0.880972 0.470890
vn -0.097550 -0.097550 0.990438
vn -0.062361 0.771506 0.633158
vn -0.028579 -0.956549 0.290166
vn -0.093835 -0.289004 0.952718
vn -0.075915 0.632562 0.770780
vn -0.086536 -0.469627 0.878613
vn -0.086536 0.469628 0.878613
vn -0.256282 -0.469627 0.844849
vn -0.256282 0.469628 0.844848
vn -0.224829 -0.632562 0.741159
vn -0.277898 0.289003 0.916106
vn -0.084638 0.956549 0.279015
vn -0.184686 -0.771506 0.608827
vn -0.288901 0.097550 0.952376
vn -0.137354 0.880972 0.452794
vn -0.137354 -0.880972 0.452794
vn -0.288900 -0.097550 0.952376
vn -0.184686 0.771506 0.608826
vn -0.084638 -0.956550 0.279015
vn -0.277898 -0.289004 0.916106
vn -0.224828 0.632562 0.741159
vn -0.299913 0.771506 0.561097
vn -0.137445 -0.956550 0.257142
vn -0.451282 -0.289004 0.844288
vn -0.365101 0.632562 0.683056
vn -0.416180 -0.469627 0.778617
vn -0.416180 0.469628 0.778617
vn -0.365101 -0.632563 0.683056
vn -0.451281 0.289003 0.844288
vn -0.137445 0.956549 0.257142
vn -0.299913 -0.771506 0.561098
vn -0.469149 0.097550 0.877715
vn -0.223050 0.880972 0.417298
vn -0.223050 -0.880972 0.417297
vn -0.469149 -0.097550 0.877715
vn -0.631368 0.097550 0.769324
vn -0.300175 0.880972 0.365764
vn -0.300175 -0.880972 0.365764
vn -0.631368 -0.097550 0.769323
vn -0.403615 0.771506 0.491806
vn -0.184970 -0.956549 0.225387
vn -0.607323 -0.289004 0.740024
vn -0.491344 0.632562 0.598704
vn -0.560084 -0.469627 0.682464
vn -0.560084 0.469628 0.682463
vn -0.491344 -0.632563 0.598704
vn -0.607323 0.289003 0.740024
vn -0.184970 0.956549 0.225387
vn -0.403615 -0.771506 0.491806
vn -0.598704 -0.632563 0.491343
vn -0.740025 0.289003 0.607322
vn -0.225387 0.956549 0.184970
vn -0.491807 -0.771506 0.403615
vn -0.769324 0.097550 0.631367
vn -0.365765 0.880972 0.300175
vn -0.365764 -0.880972 0.300175
vn -0.769324 -0.097550 0.631367
vn -0.491806 0.771506 0.403615
vn -0.225387 -0.956549 0.184970
vn -0.740025 -0.289004 0.607322
vn -0.598704 0.632562 0.491343
vn -0.682464 -0.469627 0.560083
vn -0.682464 0.469628 0.560083
vn -0.778617 -0.469627 0.416179
vn -0.778617 0.469628 0.416179
vn -0.683056 -0.632563 0.365101
vn -0.844288 0.289003 0.451281
vn -0.257142 0.956549 0.137445
vn -0.561098 -0.771506 0.299913
vn -0.877715 0.097550 0.469148
vn -0.417298 0.880972 0.223050
vn -0.417297 -0.880972 0.223050
vn -0.877715 -0.097550 0.469148
vn -0.561098 0.771506 0.299913
vn -0.257142 -0.956549 0.137445
vn -0.844288 -0.289004 0.451281
vn -0.683056 0.632562 0.365101
vn -0.279015 -0.956550 0.084638
vn -0.916106 -0.289004 0.277897
vn -0.741160 0.632562 0.224828
vn -0.844849 -0.469627 0.256282
vn -0.844849 0.469628 0.256282
vn -0.741159 -0.632563 0.224828
vn -0.916106 0.289003 0.277897
vn -0.279015 0.956549 0.084638
vn -0.608827 -0.771506 0.184685
vn -0.952376 0.097550 0.288900
vn -0.452794 0.880972 0.137353
vn -0.452794 -0.880972 0.137353
vn -0.952377 -0.097550 0.288900
vn -0.608826 0.771506 0.184685
vn -0.098012 -0.995138 -0.009653
vn -0.098013 0.995138 -0.009653
vn -0.094246 -0.995138 -0.028589
vn -0.094246 0.995138 -0.028589
vn -0.086857 -0.995138 -0.046426
vn -0.086858 0.995138 -0.046426
vn -0.076131 -0.995138 -0.062479
vn -0.076131 0.995138 -0.062479
vn -0.062479 0.995138 -0.076131
vn -0.062479 -0.995138 -0.076131
vn -0.046426 -0.995138 -0.086857
vn -0.046426 0.995138 -0.086858
vn -0.028589 -0.995138 -0.094246
vn -0.028589 0.995138 -0.094246
vn -0.009653 -0.995138 -0.098012
vn -0.009653 0.995138 -0.098013
vn 0.009653 0.995138 -0.098012
vn 0.009653 -0.995138 -0.098012
vn 0.028589 -0.995138 -0.094246
vn 0.028589 0.995138 -0.094246
vn 0.046426 -0.995138 -0.086857
vn 0.046426 0.995138 -0.086857
vn 0.062479 -0.995138 -0.076131
vn 0.062479 0.995138 -0.076131
vn 0.076131 0.995138 -0.062479
vn 0.076131 -0.995138 -0.062479
vn 0.086857 -0.995138 -0.046426
vn 0.086857 0.995138 -0.046426
vn 0.094246 -0.995138 -0.028589
vn 0.094246 0.995138 -0.028589
vn 0.098012 -0.995138 -0.009653
vn 0.098012 0.995138 -0.009653
vn 0.098012 0.995138 0.009653
vn 0.098012 -0.995138 0.009653
vn 0.094246 -0.995138 0.028589
vn 0.094246 0.995138 0.028589
vn 0.086857 -0.995138 0.046426
vn 0.086858 0.995138 0.046426
vn 0.076131 -0.995138 0.062479
vn 0.076131 0.995138 0.062479
vn 0.062479 -0.995138 0.076131
vn 0.062479 0.995138 0.076131
vn 0.046426 -0.995138 0.086857
vn 0.046426 0.995138 0.086858
vn 0.028589 -0.995138 0.094246
vn 0.028589 0.995138 0.094246
vn 0.009653 -0.995138 0.098012
vn 0.009653 0.995138 0.098013
vn -0.009653 -0.995138 0.098012
vn -0.009653 0.995138 0.098013
vn -0.028589 -0.995138 0.094246
vn -0.028589 0.995138 0.094246
vn -0.046426 -0.995138 0.086857
vn -0.046426 0.995138 0.086858
vn -0.062479 -0.995138 0.076131
vn -0.062480 0.995138 0.076131
vn -0.076131 -0.995138 0.062479
vn -0.076132 0.995138 0.062479
vn -0.086858 -0.995138 0.046426
vn -0.086858 0.995138 0.046426
vn -0.094246 -0.995138 0.028589
vn -0.094246 0.995138 0.028589
vn -0.470890 0.880972 0.046382
vn -0.470889 -0.880972 0.046381
vn -0.990438 -0.097550 0.097554
vn -0.633158 0.771506 0.062363
vn -0.290166 -0.956550 0.028580
vn -0.952718 -0.289004 0.093839
vn -0.770780 0.632562 0.075919
vn -0.098012 -0.995138 0.009654
vn -0.878613 -0.469627 0.086540
vn -0.878613 0.469628 0.086539
vn -0.098013 0.995138 0.009654
vn -0.770779 -0.632563 0.075919
vn -0.952718 0.289003 0.093839
vn -0.290166 0.956549 0.028580
vn -0.633158 -0.771506 0.062364
vn -0.990438 0.097550 0.097554
vn -0.770780 0.632562 -0.075915
vn -0.990438 0.097550 -0.097550
vn -0.470890 0.880972 -0.046379
vn -0.990438 -0.097550 -0.097549
vn -0.633158 0.771506 -0.062361
vn -0.741159 0.632563 -0.224828
vn -0.844849 -0.469628 -0.256282
vn -0.452793 -0.880972 -0.137354
vn -0.561097 0.771506 -0.299913
vn -0.683056 0.632562 -0.365101
vn -0.778617 -0.469628 -0.416179
vn -0.778617 0.469628 -0.416180
vn -0.257142 0.956550 -0.137445
vn -0.740025 -0.289004 -0.607323
vn -0.598704 0.632563 -0.491344
vn -0.598704 -0.632563 -0.491343
vn -0.740025 0.289004 -0.607322
vn -0.403615 -0.771506 -0.491806
vn -0.184970 -0.956550 -0.225387
vn -0.491344 0.632562 -0.598704
vn -0.560083 -0.469628 -0.682463
vn -0.137353 -0.880972 -0.452794
vn -0.184685 0.771506 -0.608826
vn -0.277897 -0.289004 -0.916106
vn -0.277898 0.289004 -0.916106
vn -0.046378 -0.880972 -0.470890
vn -0.097549 -0.097550 -0.990438
vn 0.256282 -0.469628 -0.844848
vn 0.137354 -0.880972 -0.452793
vn 0.451282 -0.289004 -0.844288
vn 0.451282 0.289003 -0.844288
vn 0.403615 -0.771506 -0.491807
vn 0.184970 -0.956550 -0.225386
vn 0.560083 -0.469628 -0.682463
vn 0.560083 0.469629 -0.682463
vn 0.607323 0.289003 -0.740024
vn 0.598704 -0.632562 -0.491343
vn 0.740025 0.289003 -0.607322
vn 0.769324 -0.097550 -0.631367
vn 0.682463 0.469629 -0.560083
vn 0.683056 -0.632563 -0.365101
vn 0.916106 0.289003 -0.277898
vn 0.633159 -0.771506 -0.062361
vn 0.990438 0.097551 -0.097549
vn 0.990438 -0.097550 -0.097550
vn 0.290166 -0.956549 0.028579
vn 0.878613 0.469629 0.086536
vn 0.741159 0.632563 0.224829
vn 0.741159 -0.632563 0.224828
vn 0.844288 -0.289004 0.451282
vn 0.683056 0.632562 0.365101
vn 0.778616 0.469629 0.416180
vn 0.844288 0.289003 0.451281
vn 0.417297 0.880972 0.223050
vn 0.491806 -0.771506 0.403615
vn 0.225387 -0.956549 0.184970
vn 0.682463 0.469629 0.560083
vn 0.631368 0.097550 0.769324
vn 0.184970 -0.956549 0.225387
vn 0.416179 -0.469628 0.778617
vn 0.365101 -0.632563 0.683056
vn 0.084638 -0.956549 0.279015
vn 0.224828 -0.632563 0.741159
vn 0.097549 0.097550 0.990438
vn 0.028579 -0.956549 0.290166
vn 0.086536 -0.469627 0.878613
vn 0.062361 -0.771506 0.633159
vn -0.075915 -0.632563 0.770780
vn -0.097550 0.097550 0.990438
vn -0.028579 -0.956550 0.290166
vn -0.224828 -0.632563 0.741159
vn -0.288901 -0.097550 0.952376
vn -0.084638 -0.956549 0.279015
vn -0.224829 0.632562 0.741159
vn -0.137445 -0.956549 0.257142
vn -0.451281 -0.289004 0.844288
vn -0.451282 0.289003 0.844288
vn -0.223051 0.880972 0.417297
vn -0.631368 0.097550 0.769323
vn -0.631368 -0.097550 0.769324
vn -0.560083 0.469628 0.682463
vn -0.607323 0.289004 0.740024
vn -0.683057 0.632562 0.365101
vn -0.279015 -0.956549 0.084638
vn -0.741159 0.632562 0.224828
vn -0.952376 -0.097550 0.288900
vn -0.470889 0.880972 0.046381
vn -0.990438 -0.097549 0.097554
vn -0.633158 0.771506 0.062365
vn -0.770779 0.632563 0.075918
vn -0.878613 -0.469628 0.086540
vn -0.878613 0.469628 0.086540
vn -0.952718 0.289004 0.093838
vn -0.633159 -0.771506 0.062364
s off
f 10 1 1 9 2 1 25 3 1
f 5 4 2 4 5 2 20 6 2
f 11 7 3 10 1 3 26 8 3
f 6 9 4 5 4 4 21 10 4
f 12 11 5 11 7 5 27 12 5
f 7 13 6 6 9 6 22 14 6
f 2 15 7 1 16 7 17 17 7
f 13 18 8 12 11 8 28 19 8
f 8 20 9 7 13 9 23 21 9
f 3 22 10 2 15 10 18 23 10
f 14 24 11 13 18 11 29 25 11
f 9 2 12 8 20 12 24 26 12
f 4 5 13 3 22 13 19 27 13
f 15 28 14 14 24 14 30 29 14
f 30 30 15 29 31 15 45 32 15
f 25 3 16 24 26 16 40 33 16
f 20 6 17 19 27 17 35 34 17
f 26 8 18 25 3 18 41 35 18
f 21 10 19 20 6 19 36 36 19
f 27 12 20 26 8 20 42 37 20
f 22 14 21 21 10 21 37 38 21
f 17 17 22 16 39 22 32 40 22
f 28 19 23 27 12 23 43 41 23
f 23 21 24 22 14 24 38 42 24
f 18 23 25 17 17 25 33 43 25
f 29 31 26 28 44 26 44 45 26
f 24 26 27 23 21 27 39 46 27
f 19 27 28 18 23 28 34 47 28
f 44 45 29 43 48 29 59 49 29
f 39 50 30 38 51 30 54 52 30
f 34 53 31 33 54 31 49 55 31
f 45 32 32 44 45 32 60 56 32
f 40 57 33 39 50 33 55 58 33
f 35 59 34 34 53 34 50 60 34
f 41 61 35 40 57 35 56 62 35
f 36 63 36 35 59 36 51 64 36
f 42 65 37 41 61 37 57 66 37
f 37 67 38 36 63 38 52 68 38
f 32 40 39 31 69 39 47 70 39
f 43 48 40 42 65 40 58 71 40
f 38 51 41 37 67 41 53 72 41
f 33 54 42 32 40 42 48 73 42
f 47 70 43 46 74 43 62 75 43
f 58 71 44 57 66 44 73 76 44
f 53 72 45 52 68 45 68 77 45
f 48 73 46 47 70 46 63 78 46
f 59 49 47 58 71 47 74 79 47
f 54 52 48 53 72 48 69 80 48
f 49 55 49 48 73 49 64 81 49
f 60 56 50 59 49 50 75 82 50
f 55 58 51 54 52 51 70 83 51
f 50 60 52 49 55 52 65 84 52
f 56 62 53 55 58 53 71 85 53
f 51 64 54 50 60 54 66 86 54
f 57 66 55 56 62 55 72 87 55
f 52 68 56 51 64 56 67 88 56
f 66 86 57 65 84 57 81 89 57
f 72 87 58 71 85 58 87 90 58
f 67 88 59 66 86 59 82 91 59
f 62 75 60 61 92 60 77 93 60
f 73 76 61 72 87 61 88 94 61
f 68 77 62 67 88 62 83 95 62
f 63 78 63 62 75 63 78 96 63
f 74 79 64 73 76 64 89 97 64
f 69 80 65 68 77 65 84 98 65
f 64 81 66 63 78 66 79 99 66
f 75 82 67 74 79 67 90 100 67
f 70 83 68 69 80 68 85 101 68
f 65 84 69 64 81 69 80 102 69
f 71 85 70 70 83 70 86 103 70
f 85 101 71 84 98 71 100 104 71
f 80 102 72 79 99 72 95 105 72
f 86 103 73 85 101 73 101 106 73
f 81 89 74 80 102 74 96 107 74
f 87 90 75 86 103 75 102 108 75
f 82 91 76 81 89 76 97 109 76
f 77 93 77 76 110 77 92 111 77
f 88 94 78 87 90 78 103 112 78
f 83 95 79 82 91 79 98 113 79
f 78 96 80 77 93 80 93 114 80
f 89 97 81 88 94 81 104 115 81
f 84 98 82 83 95 82 99 116 82
f 79 99 83 78 96 83 94 117 83
f 90 100 84 89 97 84 105 118 84
f 104 115 85 103 112 85 119 119 85
f 99 116 86 98 113 86 114 120 86
f 94 117 87 93 114 87 109 121 87
f 105 118 88 104 115 88 120 122 88
f 100 104 89 99 116 89 115 123 89
f 95 105 90 94 117 90 110 124 90
f 101 106 91 100 104 91 116 125 91
f 96 107 92 95 105 92 111 126 92
f 102 108 93 101 106 93 117 127 93
f 97 109 94 96 107 94 112 128 94
f 92 111 95 91 129 95 107 130 95
f 103 112 96 102 108 96 118 131 96
f 98 113 97 97 109 97 113 132 97
f 93 114 98 92 111 98 108 133 98
f 107 130 99 106 134 99 122 135 99
f 118 131 100 117 127 100 133 136 100
f 113 132 101 112 128 101 128 137 101
f 108 133 102 107 130 102 123 138 102
f 119 119 103 118 131 103 134 139 103
f 114 120 104 113 132 104 129 140 104
f 109 121 105 108 133 105 123 138 105
f 120 122 106 119 119 106 135 141 106
f 115 123 107 114 120 107 130 142 107
f 110 124 108 109 121 108 125 143 108
f 116 125 109 115 123 109 131 144 109
f 111 126 110 110 124 110 126 145 110
f 117 127 111 116 125 111 132 146 111
f 112 128 112 111 126 112 127 147 112
f 126 145 113 125 143 113 141 148 113
f 132 146 114 131 144 114 147 149 114
f 127 147 115 126 145 115 142 150 115
f 122 135 116 121 151 116 137 152 116
f 133 136 117 132 146 117 148 153 117
f 128 137 118 127 147 118 143 154 118
f 123 138 119 122 135 119 138 155 119
f 134 139 120 133 136 120 149 156 120
f 129 140 121 128 137 121 144 157 121
f 124 158 122 123 138 122 139 159 122
f 135 141 123 134 139 123 150 160 123
f 130 142 124 129 140 124 145 161 124
f 125 143 125 124 158 125 140 162 125
f 131 144 126 130 142 126 146 163 126
f 145 161 127 144 157 127 160 164 127
f 140 162 128 139 159 128 155 165 128
f 146 163 129 145 161 129 161 166 129
f 141 148 130 140 162 130 156 167 130
f 147 149 131 146 163 131 162 168 131
f 142 150 132 141 148 132 157 169 132
f 137 152 133 136 170 133 152 171 133
f 148 153 134 147 149 134 163 172 134
f 143 154 135 142 150 135 158 173 135
f 138 155 136 137 152 136 153 174 136
f 149 156 137 148 153 137 164 175 137
f 144 157 138 143 154 138 159 176 138
f 139 159 139 138 155 139 153 174 139
f 150 160 140 149 156 140 165 177 140
f 164 175 141 163 172 141 179 178 141
f 159 176 142 158 173 142 174 179 142
f 154 180 143 153 174 143 168 181 143
f 165 177 144 164 175 144 180 182 144
f 160 164 145 159 176 145 175 183 145
f 155 165 146 154 180 146 170 184 146
f 161 166 147 160 164 147 176 185 147
f 156 167 148 155 165 148 171 186 148
f 162 168 149 161 166 149 177 187 149
f 157 169 150 156 167 150 172 188 150
f 152 171 151 151 189 151 167 190 151
f 163 172 152 162 168 152 178 191 152
f 158 173 153 157 169 153 173 192 153
f 153 174 154 152 171 154 168 181 154
f 178 191 155 177 187 155 193 193 155
f 173 192 156 172 188 156 188 194 156
f 168 181 157 167 190 157 183 195 157
f 179 178 158 178 191 158 194 196 158
f 174 179 159 173 192 159 189 197 159
f 169 198 160 168 181 160 184 199 160
f 180 182 161 179 178 161 195 200 161
f 175 183 162 174 179 162 190 201 162
f 170 184 163 169 198 163 185 202 163
f 176 185 164 175 183 164 191 203 164
f 171 186 165 170 184 165 185 202 165
f 177 187 166 176 185 166 192 204 166
f 172 188 167 171 186 167 187 205 167
f 167 190 168 166 206 168 182 207 168
f 192 204 169 191 203 169 207 208 169
f 187 205 170 186 209 170 202 210 170
f 182 207 171 181 211 171 197 212 171
f 193 193 172 192 204 172 208 213 172
f 188 194 173 187 205 173 203 214 173
f 183 195 174 182 207 174 198 215 174
f 194 196 175 193 193 175 209 216 175
f 189 197 176 188 194 176 204 217 176
f 184 199 177 183 195 177 199 218 177
f 195 200 178 194 196 178 210 219 178
f 190 201 179 189 197 179 205 220 179
f 185 202 180 184 199 180 200 221 180
f 191 203 181 190 201 181 206 222 181
f 186 209 182 185 202 182 200 221 182
f 200 221 183 199 218 183 215 223 183
f 206 222 184 205 220 184 221 224 184
f 201 225 185 200 221 185 215 223 185
f 207 208 186 206 222 186 222 226 186
f 202 210 187 201 225 187 217 227 187
f 197 212 188 196 228 188 212 229 188
f 208 213 189 207 208 189 223 230 189
f 203 214 190 202 210 190 218 231 190
f 198 215 191 197 212 191 213 232 191
f 209 216 192 208 213 192 224 233 192
f 204 217 193 203 214 193 219 234 193
f 199 218 194 198 215 194 213 232 194
f 210 219 195 209 216 195 225 235 195
f 205 220 196 204 217 196 220 236 196
f 219 234 197 218 231 197 234 237 197
f 214 238 198 213 232 198 229 239 198
f 225 235 199 224 233 199 240 240 199
f 220 236 200 219 234 200 235 241 200
f 215 223 201 214 238 201 230 242 201
f 221 224 202 220 236 202 236 243 202
f 216 244 203 215 223 203 230 242 203
f 222 226 204 221 224 204 237 245 204
f 217 227 205 216 244 205 232 246 205
f 212 229 206 211 247 206 227 248 206
f 223 230 207 222 226 207 238 249 207
f 218 231 208 217 227 208 233 250 208
f 213 232 209 212 229 209 228 251 209
f 224 233 210 223 230 210 239 252 210
f 238 249 211 237 245 211 253 253 211
f 233 250 212 232 246 212 248 254 212
f 228 251 213 227 248 213 243 255 213
f 239 252 214 238 249 214 254 256 214
f 234 237 215 233 250 215 249 257 215
f 229 239 216 228 251 216 244 258 216
f 240 240 217 239 252 217 255 259 217
f 235 241 218 234 237 218 250 260 218
f 230 242 219 229 239 219 245 261 219
f 236 243 220 235 241 220 251 262 220
f 231 263 221 230 242 221 245 261 221
f 237 245 222 236 243 222 252 264 222
f 232 246 223 231 263 223 247 265 223
f 227 248 224 226 266 224 242 267 224
f 252 264 225 251 262 225 267 268 225
f 247 265 226 246 269 226 262 270 226
f 242 267 227 241 271 227 257 272 227
f 253 253 228 252 264 228 268 273 228
f 248 254 229 247 265 229 263 274 229
f 243 255 230 242 267 230 258 275 230
f 254 256 231 253 253 231 269 276 231
f 249 257 232 248 254 232 264 277 232
f 244 258 233 243 255 233 259 278 233
f 255 259 234 254 256 234 270 279 234
f 250 260 235 249 257 235 265 280 235
f 245 261 236 244 258 236 260 281 236
f 251 262 237 250 260 237 266 282 237
f 246 269 238 245 261 238 260 281 238
f 260 281 239 259 278 239 275 283 239
f 266 282 240 265 280 240 281 284 240
f 261 285 241 260 281 241 276 286 241
f 267 268 242 266 282 242 282 287 242
f 262 270 243 261 285 243 277 288 243
f 257 272 244 256 289 244 272 290 244
f 268 273 245 267 268 245 283 291 245
f 263 274 246 262 270 246 278 292 246
f 258 275 247 257 272 247 273 293 247
f 269 276 248 268 273 248 284 294 248
f 264 277 249 263 274 249 279 295 249
f 259 278 250 258 275 250 273 293 250
f 270 279 251 269 276 251 285 296 251
f 265 280 252 264 277 252 280 297 252
f 279 295 253 278 292 253 294 298 253
f 274 299 254 273 293 254 289 300 254
f 285 296 255 284 294 255 300 301 255
f 280 297 256 279 295 256 295 302 256
f 275 283 257 274 299 257 290 303 257
f 281 284 258 280 297 258 296 304 258
f 276 286 259 275 283 259 291 305 259
f 282 287 260 281 284 260 297 306 260
f 277 288 261 276 286 261 292 307 261
f 272 290 262 271 308 262 287 309 262
f 283 291 263 282 287 263 298 310 263
f 278 292 264 277 288 264 293 311 264
f 273 293 265 272 290 265 288 312 265
f 284 294 266 283 291 266 299 313 266
f 298 310 267 297 306 267 313 314 267
f 293 311 268 292 307 268 308 315 268
f 288 312 269 287 309 269 303 316 269
f 299 317 270 298 310 270 314 318 270
f 294 298 271 293 311 271 309 319 271
f 289 300 272 288 312 272 304 320 272
f 300 321 273 299 317 273 315 322 273
f 295 302 274 294 298 274 310 323 274
f 290 303 275 289 300 275 305 324 275
f 296 304 276 295 302 276 311 325 276
f 291 305 277 290 303 277 306 326 277
f 297 306 278 296 304 278 312 327 278
f 292 307 279 291 305 279 307 328 279
f 287 309 280 286 329 280 302 330 280
f 312 327 281 311 325 281 327 331 281
f 307 328 282 306 326 282 322 332 282
f 302 330 283 301 333 283 317 334 283
f 313 314 284 312 327 284 328 335 284
f 308 315 285 307 328 285 323 336 285
f 303 316 286 302 330 286 318 337 286
f 314 318 287 313 314 287 329 338 287
f 309 319 288 308 315 288 324 339 288
f 304 320 289 303 316 289 319 340 289
f 315 322 290 314 318 290 330 341 290
f 310 323 291 309 319 291 324 339 291
f 305 324 292 304 320 292 320 342 292
f 311 325 293 310 323 293 326 343 293
f 306 326 294 305 324 294 321 344 294
f 326 343 295 325 345 295 342 346 295
f 321 344 296 320 342 296 337 347 296
f 327 331 297 326 343 297 343 348 297
f 322 332 298 321 344 298 338 349 298
f 317 334 299 316 350 299 333 351 299
f 328 335 300 327 331 300 344 352 300
f 323 336 301 322 332 301 339 353 301
f 318 337 302 317 334 302 334 354 302
f 329 338 303 328 335 303 345 355 303
f 324 339 304 323 336 304 340 356 304
f 319 340 305 318 337 305 335 357 305
f 330 341 306 329 338 306 346 358 306
f 325 345 307 324 339 307 340 356 307
f 320 342 308 319 340 308 336 359 308
f 335 357 309 334 354 309 350 360 309
f 346 358 310 345 355 310 361 361 310
f 341 362 311 340 356 311 355 363 311
f 336 359 312 335 357 312 351 364 312
f 342 346 313 341 362 313 357 365 313
f 337 347 314 336 359 314 352 366 314
f 343 348 315 342 346 315 358 367 315
f 338 349 316 337 347 316 353 368 316
f 333 351 317 332 369 317 348 370 317
f 344 352 318 343 348 318 359 371 318
f 339 353 319 338 349 319 354 372 319
f 334 354 320 333 351 320 349 373 320
f 345 355 321 344 352 321 360 374 321
f 340 356 322 339 353 322 355 363 322
f 354 372 323 353 368 323 369 375 323
f 349 373 324 348 370 324 364 376 324
f 360 374 325 359 371 325 375 377 325
f 355 363 326 354 372 326 370 378 326
f 350 360 327 349 373 327 365 379 327
f 361 361 328 360 374 328 376 380 328
f 356 381 329 355 363 329 370 378 329
f 351 364 330 350 360 330 366 382 330
f 357 365 331 356 381 331 372 383 331
f 352 366 332 351 364 332 367 384 332
f 358 367 333 357 365 333 373 385 333
f 353 368 334 352 366 334 368 386 334
f 348 370 335 347 387 335 363 388 335
f 359 371 336 358 367 336 374 389 336
f 373 385 337 372 383 337 388 390 337
f 368 386 338 367 384 338 383 391 338
f 363 388 339 362 392 339 378 393 339
f 374 389 340 373 385 340 389 394 340
f 369 375 341 368 386 341 384 395 341
f 364 376 342 363 388 342 379 396 342
f 375 377 343 374 389 343 390 397 343
f 370 378 344 369 375 344 385 398 344
f 365 379 345 364 376 345 380 399 345
f 376 380 346 375 377 346 391 400 346
f 371 401 347 370 378 347 385 398 347
f 366 382 348 365 379 348 381 402 348
f 372 383 349 371 401 349 387 403 349
f 367 384 350 366 382 350 382 404 350
f 387 403 351 386 405 351 402 406 351
f 382 404 352 381 402 352 397 407 352
f 388 390 353 387 403 353 403 408 353
f 383 391 354 382 404 354 398 409 354
f 378 393 355 377 410 355 393 411 355
f 389 394 356 388 390 356 404 412 356
f 384 395 357 383 391 357 399 413 357
f 379 396 358 378 393 358 394 414 358
f 390 397 359 389 394 359 405 415 359
f 385 398 360 384 395 360 400 416 360
f 380 399 361 379 396 361 394 414 361
f 391 400 362 390 397 362 406 417 362
f 386 405 363 385 398 363 400 416 363
f 381 402 364 380 399 364 396 418 364
f 395 419 365 394 414 365 410 420 365
f 406 417 366 405 415 366 421 421 366
f 401 422 367 400 416 367 415 423 367
f 396 418 368 395 419 368 411 424 368
f 402 406 369 401 422 369 417 425 369
f 397 407 370 396 418 370 412 426 370
f 403 408 371 402 406 371 418 427 371
f 398 409 372 397 407 372 413 428 372
f 393 411 373 392 429 373 408 430 373
f 404 412 374 403 408 374 419 431 374
f 399 413 375 398 409 375 414 432 375
f 394 414 376 393 411 376 409 433 376
f 405 415 377 404 412 377 420 434 377
f 400 416 378 399 413 378 415 423 378
f 414 432 379 413 428 379 429 435 379
f 409 433 380 408 430 380 424 436 380
f 420 434 381 419 431 381 435 437 381
f 415 423 382 414 432 382 430 438 382
f 410 420 383 409 433 383 424 436 383
f 421 421 384 420 434 384 436 439 384
f 416 440 385 415 423 385 430 438 385
f 411 424 386 410 420 386 426 441 386
f 417 425 387 416 440 387 432 442 387
f 412 426 388 411 424 388 427 443 388
f 418 427 389 417 425 389 433 444 389
f 413 428 390 412 426 390 427 443 390
f 408 430 391 407 445 391 423 446 391
f 419 431 392 418 427 392 434 447 392
f 433 444 393 432 442 393 448 448 393
f 428 449 394 427 443 394 442 450 394
f 423 446 395 422 451 395 438 452 395
f 434 447 396 433 444 396 449 453 396
f 429 435 397 428 449 397 444 454 397
f 424 436 398 423 446 398 439 455 398
f 435 437 399 434 447 399 450 456 399
f 430 438 400 429 435 400 445 457 400
f 425 458 401 424 436 401 439 455 401
f 436 439 402 435 437 402 451 459 402
f 431 460 403 430 438 403 445 457 403
f 426 441 404 425 458 404 441 461 404
f 432 442 405 431 460 405 447 462 405
f 427 443 406 426 441 406 442 450 406
f 447 462 407 446 463 407 463 464 407
f 442 450 408 441 461 408 458 465 408
f 448 448 409 447 462 409 464 466 409
f 443 467 410 442 450 410 458 465 410
f 438 452 411 437 468 411 454 469 411
f 449 453 412 448 448 412 465 470 412
f 444 454 413 443 467 413 460 471 413
f 439 455 414 438 452 414 455 472 414
f 450 456 415 449 453 415 466 473 415
f 445 457 416 444 454 416 461 474 416
f 440 475 417 439 455 417 456 476 417
f 451 459 418 450 456 418 467 477 418
f 446 463 419 445 457 419 461 474 419
f 441 461 420 440 475 420 457 478 420
f 467 477 421 466 473 421 482 479 421
f 462 480 422 461 474 422 476 481 422
f 457 478 423 456 476 423 472 482 423
f 463 464 424 462 480 424 478 483 424
f 458 465 425 457 478 425 473 484 425
f 464 466 426 463 464 426 479 485 426
f 459 486 427 458 465 427 473 484 427
f 454 469 428 453 487 428 469 488 428
f 465 470 429 464 466 429 480 489 429
f 460 471 430 459 486 430 475 490 430
f 455 472 431 454 469 431 470 491 431
f 466 473 432 465 470 432 481 492 432
f 461 474 433 460 471 433 476 481 433
f 456 476 434 455 472 434 470 491 434
f 331 493 435 15 494 435 30 30 435
f 1 16 436 452 495 436 16 39 436
f 331 493 437 30 30 437 45 32 437
f 16 39 438 452 495 438 31 69 438
f 331 493 439 45 32 439 60 56 439
f 31 69 440 452 495 440 46 74 440
f 331 493 441 60 56 441 75 82 441
f 46 74 442 452 495 442 61 92 442
f 61 92 443 452 495 443 76 110 443
f 331 493 444 75 82 444 90 100 444
f 331 493 445 90 100 445 105 118 445
f 76 110 446 452 495 446 91 129 446
f 331 493 447 105 118 447 120 122 447
f 91 129 448 452 495 448 106 134 448
f 331 493 449 120 122 449 135 141 449
f 106 134 450 452 495 450 121 151 450
f 121 151 451 452 495 451 136 170 451
f 331 493 452 135 141 452 150 160 452
f 331 493 453 150 160 453 165 177 453
f 136 170 454 452 495 454 151 189 454
f 331 493 455 165 177 455 180 182 455
f 151 189 456 452 495 456 166 206 456
f 331 493 457 180 182 457 195 200 457
f 166 206 458 452 495 458 181 211 458
f 181 211 459 452 495 459 196 228 459
f 331 493 460 195 200 460 210 219 460
f 331 493 461 210 219 461 225 235 461
f 196 228 462 452 495 462 211 247 462
f 331 493 463 225 235 463 240 240 463
f 211 247 464 452 495 464 226 266 464
f 331 493 465 240 240 465 255 259 465
f 226 266 466 452 495 466 241 271 466
f 241 271 467 452 495 467 256 289 467
f 331 493 468 255 259 468 270 279 468
f 331 493 469 270 279 469 285 296 469
f 256 289 470 452 495 470 271 308 470
f 331 493 471 285 296 471 300 301 471
f 271 308 472 452 495 472 286 329 472
f 331 493 473 300 301 473 315 496 473
f 286 329 474 452 495 474 301 333 474
f 331 493 475 315 496 475 330 497 475
f 301 333 476 452 495 476 316 350 476
f 331 493 477 330 497 477 346 498 477
f 316 350 478 452 495 478 332 369 478
f 331 493 479 346 498 479 361 499 479
f 332 369 480 452 495 480 347 387 480
f 331 493 481 361 499 481 376 500 481
f 347 387 482 452 495 482 362 392 482
f 331 493 483 376 500 483 391 501 483
f 362 392 484 452 495 484 377 410 484
f 331 493 485 391 501 485 406 502 485
f 377 410 486 452 495 486 392 429 486
f 331 493 487 406 502 487 421 503 487
f 392 429 488 452 495 488 407 445 488
f 331 493 489 421 503 489 436 504 489
f 407 445 490 452 495 490 422 451 490
f 331 493 491 436 504 491 451 505 491
f 422 451 492 452 495 492 437 468 492
f 331 493 493 451 505 493 467 506 493
f 437 468 494 452 495 494 453 487 494
f 331 493 495 467 506 495 482 507 495
f 453 487 496 452 495 496 468 508 496
f 470 491 497 469 488 497 3 22 497
f 481 492 498 480 489 498 13 18 498
f 476 481 499 475 490 499 9 2 499
f 471 509 500 470 491 500 4 5 500
f 482 479 501 481 492 501 14 24 501
f 477 510 502 476 481 502 9 2 502
f 472 482 503 471 509 503 5 4 503
f 331 493 504 482 507 504 15 494 504
f 478 483 505 477 510 505 10 1 505
f 473 484 506 472 482 506 6 9 506
f 468 508 507 452 495 507 1 16 507
f 479 485 508 478 483 508 11 7 508
f 474 511 509 473 484 509 7 13 509
f 469 488 510 468 508 510 2 15 510
f 480 489 511 479 485 511 12 11 511
f 475 490 512 474 511 512 8 20 512
f 9 2 1 24 26 1 25 3 1
f 4 5 513 19 27 513 20 6 513
f 10 1 3 25 3 3 26 8 3
f 5 4 4 20 6 4 21 10 4
f 11 7 5 26 8 5 27 12 5
f 6 9 6 21 10 6 22 14 6
f 1 16 7 16 39 7 17 17 7
f 12 11 8 27 12 8 28 19 8
f 7 13 514 22 14 514 23 21 514
f 2 15 515 17 17 515 18 23 515
f 13 18 11 28 19 11 29 25 11
f 8 20 516 23 21 516 24 26 516
f 3 22 517 18 23 517 19 27 517
f 14 24 14 29 25 14 30 29 14
f 29 31 15 44 45 15 45 32 15
f 24 26 16 39 46 16 40 33 16
f 19 27 518 34 47 518 35 34 518
f 25 3 519 40 33 519 41 35 519
f 20 6 19 35 34 19 36 36 19
f 26 8 20 41 35 20 42 37 20
f 21 10 21 36 36 21 37 38 21
f 16 39 22 31 69 22 32 40 22
f 27 12 23 42 37 23 43 41 23
f 22 14 24 37 38 24 38 42 24
f 17 17 25 32 40 25 33 43 25
f 28 44 520 43 48 520 44 45 520
f 23 21 27 38 42 27 39 46 27
f 18 23 28 33 43 28 34 47 28
f 43 48 29 58 71 29 59 49 29
f 38 51 30 53 72 30 54 52 30
f 33 54 521 48 73 521 49 55 521
f 44 45 32 59 49 32 60 56 32
f 39 50 33 54 52 33 55 58 33
f 34 53 522 49 55 522 50 60 522
f 40 57 523 55 58 523 56 62 523
f 35 59 524 50 60 524 51 64 524
f 41 61 37 56 62 37 57 66 37
f 36 63 38 51 64 38 52 68 38
f 31 69 525 46 74 525 47 70 525
f 42 65 40 57 66 40 58 71 40
f 37 67 41 52 68 41 53 72 41
f 32 40 42 47 70 42 48 73 42
f 46 74 43 61 92 43 62 75 43
f 57 66 44 72 87 44 73 76 44
f 52 68 45 67 88 45 68 77 45
f 47 70 46 62 75 46 63 78 46
f 58 71 47 73 76 47 74 79 47
f 53 72 48 68 77 48 69 80 48
f 48 73 49 63 78 49 64 81 49
f 59 49 50 74 79 50 75 82 50
f 54 52 526 69 80 526 70 83 526
f 49 55 527 64 81 527 65 84 527
f 55 58 53 70 83 53 71 85 53
f 50 60 54 65 84 54 66 86 54
f 56 62 528 71 85 528 72 87 528
f 51 64 529 66 86 529 67 88 529
f 65 84 57 80 102 57 81 89 57
f 71 85 58 86 103 58 87 90 58
f 66 86 59 81 89 59 82 91 59
f 61 92 60 76 110 60 77 93 60
f 72 87 530 87 90 530 88 94 530
f 67 88 62 82 91 62 83 95 62
f 62 75 63 77 93 63 78 96 63
f 73 76 64 88 94 64 89 97 64
f 68 77 65 83 95 65 84 98 65
f 63 78 66 78 96 66 79 99 66
f 74 79 531 89 97 531 90 100 531
f 69 80 68 84 98 68 85 101 68
f 64 81 532 79 99 532 80 102 532
f 70 83 533 85 101 533 86 103 533
f 84 98 71 99 116 71 100 104 71
f 79 99 72 94 117 72 95 105 72
f 85 101 73 100 104 73 101 106 73
f 80 102 74 95 105 74 96 107 74
f 86 103 75 101 106 75 102 108 75
f 81 89 76 96 107 76 97 109 76
f 76 110 77 91 129 77 92 111 77
f 87 90 78 102 108 78 103 112 78
f 82 91 79 97 109 79 98 113 79
f 77 93 80 92 111 80 93 114 80
f 88 94 81 103 112 81 104 115 81
f 83 95 82 98 113 82 99 116 82
f 78 96 83 93 114 83 94 117 83
f 89 97 84 104 115 84 105 118 84
f 103 112 534 118 131 534 119 119 534
f 98 113 86 113 132 86 114 120 86
f 93 114 535 108 133 535 109 121 535
f 104 115 88 119 119 88 120 122 88
f 99 116 536 114 120 536 115 123 536
f 94 117 90 109 121 90 110 124 90
f 100 104 91 115 123 91 116 125 91
f 95 105 92 110 124 92 111 126 92
f 101 106 93 116 125 93 117 127 93
f 96 107 537 111 126 537 112 128 537
f 91 129 95 106 134 95 107 130 95
f 102 108 96 117 127 96 118 131 96
f 97 109 97 112 128 97 113 132 97
f 92 111 98 107 130 98 108 133 98
f 106 134 99 121 151 99 122 135 99
f 117 127 100 132 146 100 133 136 100
f 112 128 101 127 147 101 128 137 101
f 107 130 102 122 135 102 123 138 102
f 118 131 538 133 136 538 134 139 538
f 113 132 539 128 137 539 129 140 539
f 124 158 105 109 121 105 123 138 105
f 119 119 106 134 139 106 135 141 106
f 114 120 107 129 140 107 130 142 107
f 109 121 108 124 158 108 125 143 108
f 115 123 109 130 142 109 131 144 109
f 110 124 110 125 143 110 126 145 110
f 116 125 111 131 144 111 132 146 111
f 111 126 112 126 145 112 127 147 112
f 125 143 113 140 162 113 141 148 113
f 131 144 114 146 163 114 147 149 114
f 126 145 115 141 148 115 142 150 115
f 121 151 116 136 170 116 137 152 116
f 132 146 117 147 149 117 148 153 117
f 127 147 118 142 150 118 143 154 118
f 122 135 119 137 152 119 138 155 119
f 133 136 120 148 153 120 149 156 120
f 128 137 121 143 154 121 144 157 121
f 123 138 122 138 155 122 139 159 122
f 134 139 123 149 156 123 150 160 123
f 129 140 124 144 157 124 145 161 124
f 124 158 125 139 159 125 140 162 125
f 130 142 126 145 161 126 146 163 126
f 144 157 127 159 176 127 160 164 127
f 139 159 128 154 180 128 155 165 128
f 145 161 540 160 164 540 161 166 540
f 140 162 130 155 165 130 156 167 130
f 146 163 131 161 166 131 162 168 131
f 141 148 132 156 167 132 157 169 132
f 136 170 133 151 189 133 152 171 133
f 147 149 134 162 168 134 163 172 134
f 142 150 135 157 169 135 158 173 135
f 137 152 136 152 171 136 153 174 136
f 148 153 541 163 172 541 164 175 541
f 143 154 138 158 173 138 159 176 138
f 154 180 139 139 159 139 153 174 139
f 149 156 140 164 175 140 165 177 140
f 163 172 141 178 191 141 179 178 141
f 158 173 142 173 192 142 174 179 142
f 169 198 143 154 180 143 168 181 143
f 164 175 144 179 178 144 180 182 144
f 159 176 542 174 179 542 175 183 542
f 154 180 146 169 198 146 170 184 146
f 160 164 147 175 183 147 176 185 147
f 155 165 148 170 184 148 171 186 148
f 161 166 149 176 185 149 177 187 149
f 156 167 543 171 186 543 172 188 543
f 151 189 151 166 206 151 167 190 151
f 162 168 152 177 187 152 178 191 152
f 157 169 153 172 188 153 173 192 153
f 152 171 154 167 190 154 168 181 154
f 177 187 544 192 204 544 193 193 544
f 172 188 156 187 205 156 188 194 156
f 167 190 157 182 207 157 183 195 157
f 178 191 158 193 193 158 194 196 158
f 173 192 159 188 194 159 189 197 159
f 168 181 160 183 195 160 184 199 160
f 179 178 545 194 196 545 195 200 545
f 174 179 162 189 197 162 190 201 162
f 169 198 163 184 199 163 185 202 163
f 175 183 546 190 201 546 191 203 546
f 186 209 547 171 186 547 185 202 547
f 176 185 166 191 203 166 192 204 166
f 171 186 548 186 209 548 187 205 548
f 166 206 168 181 211 168 182 207 168
f 191 203 549 206 222 549 207 208 549
f 186 209 550 201 225 550 202 210 550
f 181 211 171 196 228 171 197 212 171
f 192 204 172 207 208 172 208 213 172
f 187 205 173 202 210 173 203 214 173
f 182 207 174 197 212 174 198 215 174
f 193 193 175 208 213 175 209 216 175
f 188 194 551 203 214 551 204 217 551
f 183 195 177 198 215 177 199 218 177
f 194 196 178 209 216 178 210 219 178
f 189 197 179 204 217 179 205 220 179
f 184 199 180 199 218 180 200 221 180
f 190 201 181 205 220 181 206 222 181
f 201 225 552 186 209 552 200 221 552
f 199 218 183 214 238 183 215 223 183
f 205 220 184 220 236 184 221 224 184
f 216 244 185 201 225 185 215 223 185
f 206 222 553 221 224 553 222 226 553
f 201 225 187 216 244 187 217 227 187
f 196 228 188 211 247 188 212 229 188
f 207 208 189 222 226 189 223 230 189
f 202 210 190 217 227 190 218 231 190
f 197 212 191 212 229 191 213 232 191
f 208 213 192 223 230 192 224 233 192
f 203 214 193 218 231 193 219 234 193
f 214 238 194 199 218 194 213 232 194
f 209 216 195 224 233 195 225 235 195
f 204 217 196 219 234 196 220 236 196
f 218 231 197 233 250 197 234 237 197
f 213 232 198 228 251 198 229 239 198
f 224 233 199 239 252 199 240 240 199
f 219 234 200 234 237 200 235 241 200
f 214 238 201 229 239 201 230 242 201
f 220 236 202 235 241 202 236 243 202
f 231 263 203 216 244 203 230 242 203
f 221 224 204 236 243 204 237 245 204
f 216 244 554 231 263 554 232 246 554
f 211 247 206 226 266 206 227 248 206
f 222 226 207 237 245 207 238 249 207
f 217 227 208 232 246 208 233 250 208
f 212 229 209 227 248 209 228 251 209
f 223 230 210 238 249 210 239 252 210
f 237 245 555 252 264 555 253 253 555
f 232 246 556 247 265 556 248 254 556
f 227 248 213 242 267 213 243 255 213
f 238 249 214 253 253 214 254 256 214
f 233 250 557 248 254 557 249 257 557
f 228 251 216 243 255 216 244 258 216
f 239 252 217 254 256 217 255 259 217
f 234 237 218 249 257 218 250 260 218
f 229 239 219 244 258 219 245 261 219
f 235 241 220 250 260 220 251 262 220
f 246 269 221 231 263 221 245 261 221
f 236 243 222 251 262 222 252 264 222
f 231 263 223 246 269 223 247 265 223
f 226 266 224 241 271 224 242 267 224
f 251 262 225 266 282 225 267 268 225
f 246 269 226 261 285 226 262 270 226
f 241 271 227 256 289 227 257 272 227
f 252 264 228 267 268 228 268 273 228
f 247 265 229 262 270 229 263 274 229
f 242 267 230 257 272 230 258 275 230
f 253 253 231 268 273 231 269 276 231
f 248 254 232 263 274 232 264 277 232
f 243 255 233 258 275 233 259 278 233
f 254 256 558 269 276 558 270 279 558
f 249 257 235 264 277 235 265 280 235
f 244 258 236 259 278 236 260 281 236
f 250 260 237 265 280 237 266 282 237
f 261 285 559 246 269 559 260 281 559
f 259 278 560 274 299 560 275 283 560
f 265 280 240 280 297 240 281 284 240
f 260 281 241 275 283 241 276 286 241
f 266 282 561 281 284 561 282 287 561
f 261 285 243 276 286 243 277 288 243
f 256 289 244 271 308 244 272 290 244
f 267 268 245 282 287 245 283 291 245
f 262 270 246 277 288 246 278 292 246
f 257 272 247 272 290 247 273 293 247
f 268 273 248 283 291 248 284 294 248
f 263 274 249 278 292 249 279 295 249
f 274 299 250 259 278 250 273 293 250
f 269 276 251 284 294 251 285 296 251
f 264 277 252 279 295 252 280 297 252
f 278 292 253 293 311 253 294 298 253
f 273 293 254 288 312 254 289 300 254
f 284 294 255 299 313 255 300 301 255
f 279 295 562 294 298 562 295 302 562
f 274 299 563 289 300 563 290 303 563
f 280 297 258 295 302 258 296 304 258
f 275 283 564 290 303 564 291 305 564
f 281 284 260 296 304 260 297 306 260
f 276 286 565 291 305 565 292 307 565
f 271 308 262 286 329 262 287 309 262
f 282 287 263 297 306 263 298 310 263
f 277 288 264 292 307 264 293 311 264
f 272 290 566 287 309 566 288 312 566
f 283 291 266 298 512 266 299 313 266
f 297 306 567 312 327 567 313 314 567
f 292 307 268 307 328 268 308 315 268
f 287 309 269 302 330 269 303 316 269
f 298 310 270 313 314 270 314 318 270
f 293 311 271 308 315 271 309 319 271
f 288 312 272 303 316 272 304 320 272
f 299 317 568 314 318 568 315 322 568
f 294 298 274 309 319 274 310 323 274
f 289 300 275 304 320 275 305 324 275
f 295 302 276 310 323 276 311 325 276
f 290 303 569 305 324 569 306 326 569
f 296 304 278 311 325 278 312 327 278
f 291 305 279 306 326 279 307 328 279
f 286 329 280 301 333 280 302 330 280
f 311 325 281 326 343 281 327 331 281
f 306 326 282 321 344 282 322 332 282
f 301 333 283 316 350 283 317 334 283
f 312 327 284 327 331 284 328 335 284
f 307 328 570 322 332 570 323 336 570
f 302 330 286 317 334 286 318 337 286
f 313 314 287 328 335 287 329 338 287
f 308 315 288 323 336 288 324 339 288
f 303 316 289 318 337 289 319 340 289
f 314 318 571 329 338 571 330 341 571
f 325 345 291 310 323 291 324 339 291
f 304 320 292 319 340 292 320 342 292
f 310 323 293 325 345 293 326 343 293
f 305 324 294 320 342 294 321 344 294
f 325 345 572 341 362 572 342 346 572
f 320 342 296 336 359 296 337 347 296
f 326 343 573 342 346 573 343 348 573
f 321 344 298 337 347 298 338 349 298
f 316 350 299 332 369 299 333 351 299
f 327 331 300 343 348 300 344 352 300
f 322 332 301 338 349 301 339 353 301
f 317 334 302 333 351 302 334 354 302
f 328 335 303 344 352 303 345 355 303
f 323 336 304 339 353 304 340 356 304
f 318 337 305 334 354 305 335 357 305
f 329 338 306 345 355 306 346 358 306
f 341 362 307 325 345 307 340 356 307
f 319 340 308 335 357 308 336 359 308
f 334 354 309 349 373 309 350 360 309
f 345 355 574 360 374 574 361 361 574
f 356 381 311 341 362 311 355 363 311
f 335 357 312 350 360 312 351 364 312
f 341 362 313 356 381 313 357 365 313
f 336 359 314 351 364 314 352 366 314
f 342 346 575 357 365 575 358 367 575
f 337 347 316 352 366 316 353 368 316
f 332 369 317 347 387 317 348 370 317
f 343 348 318 358 367 318 359 371 318
f 338 349 319 353 368 319 354 372 319
f 333 351 320 348 370 320 349 373 320
f 344 352 321 359 371 321 360 374 321
f 339 353 322 354 372 322 355 363 322
f 353 368 576 368 386 576 369 375 576
f 348 370 324 363 388 324 364 376 324
f 359 371 325 374 389 325 375 377 325
f 354 372 326 369 375 326 370 378 326
f 349 373 327 364 376 327 365 379 327
f 360 374 577 375 377 577 376 380 577
f 371 401 329 356 381 329 370 378 329
f 350 360 330 365 379 330 366 382 330
f 356 381 578 371 401 578 372 383 578
f 351 364 332 366 382 332 367 384 332
f 357 365 333 372 383 333 373 385 333
f 352 366 334 367 384 334 368 386 334
f 347 387 335 362 392 335 363 388 335
f 358 367 579 373 385 579 374 389 579
f 372 383 580 387 403 580 388 390 580
f 367 384 338 382 404 338 383 391 338
f 362 392 339 377 410 339 378 393 339
f 373 385 340 388 390 340 389 394 340
f 368 386 581 383 391 581 384 395 581
f 363 388 342 378 393 342 379 396 342
f 374 389 343 389 394 343 390 397 343
f 369 375 344 384 395 344 385 398 344
f 364 376 345 379 396 345 380 399 345
f 375 377 582 390 397 582 391 400 582
f 386 405 347 371 401 347 385 398 347
f 365 379 348 380 399 348 381 402 348
f 371 401 349 386 405 349 387 403 349
f 366 382 350 381 402 350 382 404 350
f 386 405 351 401 422 351 402 406 351
f 381 402 352 396 418 352 397 407 352
f 387 403 583 402 406 583 403 408 583
f 382 404 354 397 407 354 398 409 354
f 377 410 355 392 429 355 393 411 355
f 388 390 356 403 408 356 404 412 356
f 383 391 357 398 409 357 399 413 357
f 378 393 358 393 411 358 394 414 358
f 389 394 359 404 412 359 405 415 359
f 384 395 584 399 413 584 400 416 584
f 395 419 361 380 399 361 394 414 361
f 390 397 585 405 415 585 406 417 585
f 401 422 363 386 405 363 400 416 363
f 380 399 586 395 419 586 396 418 586
f 394 414 365 409 433 365 410 420 365
f 405 415 587 420 434 587 421 421 587
f 416 440 588 401 422 588 415 423 588
f 395 419 368 410 420 368 411 424 368
f 401 422 369 416 440 369 417 425 369
f 396 418 370 411 424 370 412 426 370
f 402 406 371 417 425 371 418 427 371
f 397 407 589 412 426 589 413 428 589
f 392 429 373 407 445 373 408 430 373
f 403 408 374 418 427 374 419 431 374
f 398 409 375 413 428 375 414 432 375
f 393 411 590 408 430 590 409 433 590
f 404 412 377 419 431 377 420 434 377
f 399 413 378 414 432 378 415 423 378
f 413 428 591 428 449 591 429 435 591
f 408 430 380 423 446 380 424 436 380
f 419 431 381 434 447 381 435 437 381
f 414 432 592 429 435 592 430 438 592
f 425 458 383 410 420 383 424 436 383
f 420 434 384 435 437 384 436 439 384
f 431 460 385 416 440 385 430 438 385
f 410 420 386 425 458 386 426 441 386
f 416 440 387 431 460 387 432 442 387
f 411 424 593 426 441 593 427 443 593
f 417 425 389 432 442 389 433 444 389
f 428 449 594 413 428 594 427 443 594
f 407 445 391 422 451 391 423 446 391
f 418 427 392 433 444 392 434 447 392
f 432 442 393 447 462 393 448 448 393
f 443 467 394 428 449 394 442 450 394
f 422 451 395 437 468 395 438 452 395
f 433 444 396 448 448 396 449 453 396
f 428 449 397 443 467 397 444 454 397
f 423 446 398 438 452 398 439 455 398
f 434 447 399 449 453 399 450 456 399
f 429 435 400 444 454 400 445 457 400
f 440 475 401 425 458 401 439 455 401
f 435 437 402 450 456 402 451 459 402
f 446 463 403 431 460 403 445 457 403
f 425 458 404 440 475 404 441 461 404
f 431 460 405 446 463 405 447 462 405
f 426 441 406 441 461 406 442 450 406
f 446 463 407 462 480 407 463 464 407
f 441 461 408 457 478 408 458 465 408
f 447 462 409 463 464 409 464 466 409
f 459 486 410 443 467 410 458 465 410
f 437 468 411 453 487 411 454 469 411
f 448 448 412 464 466 412 465 470 412
f 443 467 413 459 486 413 460 471 413
f 438 452 414 454 469 414 455 472 414
f 449 453 415 465 470 415 466 473 415
f 444 454 416 460 471 416 461 474 416
f 439 455 417 455 472 417 456 476 417
f 450 456 418 466 473 418 467 477 418
f 462 480 419 446 463 419 461 474 419
f 440 475 595 456 476 595 457 478 595
f 466 473 596 481 492 596 482 479 596
f 477 510 422 462 480 422 476 481 422
f 456 476 597 471 509 597 472 482 597
f 462 480 424 477 510 424 478 483 424
f 457 478 425 472 482 425 473 484 425
f 463 464 426 478 483 426 479 485 426
f 474 511 427 459 486 427 473 484 427
f 453 487 428 468 508 428 469 488 428
f 464 466 429 479 485 429 480 489 429
f 459 486 430 474 511 430 475 490 430
f 454 469 431 469 488 431 470 491 431
f 465 470 432 480 489 432 481 492 432
f 460 471 598 475 490 598 476 481 598
f 471 509 434 456 476 434 470 491 434
f 469 488 599 2 15 599 3 22 599
f 14 24 498 481 492 498 13 18 498
f 475 490 600 8 20 600 9 2 600
f 470 491 601 3 22 601 4 5 601
f 15 28 501 482 479 501 14 24 501
f 10 1 502 477 510 502 9 2 502
f 471 509 602 4 5 602 5 4 602
f 11 7 603 478 483 603 10 1 603
f 472 482 604 5 4 604 6 9 604
f 12 11 508 479 485 508 11 7 508
f 473 484 605 6 9 605 7 13 605
f 468 508 510 1 16 510 2 15 510
f 13 18 606 480 489 606 12 11 606
f 474 511 512 7 13 512 8 20 512
