# Blender v2.68 (sub 0) OBJ File: ''
# www.blender.org
v 3.000000 0.000000 -3.000000
v 3.000000 0.000000 3.000000
v -3.000000 0.000000 3.000000
v -2.999999 0.000000 -3.000001
v 3.000001 6.000000 -2.999998
v 2.999998 6.000000 3.000002
v -3.000001 6.000000 2.999999
v -3.000000 6.000000 -3.000000
v 1.815554 0.000000 3.000000
v -1.815555 0.000000 3.000000
v 1.815553 4.903816 3.000002
v -1.815556 4.903816 2.999999
v 1.815554 0.000000 -1.256459
v -1.815555 0.000000 -1.256459
v 1.815553 4.903816 -1.256457
v -1.815556 4.903816 -1.256460
vt 0.364631 0.359359
vt 0.364631 0.002791
vt 0.008063 0.359359
vt 0.364631 0.715927
vt 0.008063 0.715927
vt 0.364631 0.537643
vt 0.364631 0.894211
vt 0.008063 0.537643
vt 0.721199 0.537643
vt 0.650810 0.472499
vt 0.364631 0.181075
vt 0.650810 0.715927
vt 0.435020 0.715927
vt 0.435020 0.968880
vt 0.721199 0.181075
vt 0.791588 0.181075
vt 0.721199 0.359359
vt 1.077767 0.359359
vt 1.007378 0.359359
vt 0.294242 0.537643
vt 0.650810 0.537643
vt 0.650810 0.829067
vt 0.435020 0.537643
vt 0.435020 0.359359
vt 0.650810 0.359359
vt 0.435020 0.612312
vt 0.364631 0.829067
vt 0.617584 0.537643
vt 0.364631 0.472499
vt 0.617584 0.472499
vt 0.008063 0.002791
vt 0.008063 0.894211
vt 0.435020 0.472499
vt 0.721199 0.894211
vt 0.008063 0.181075
vt 0.650810 0.968879
vt 0.791588 0.472499
vt 0.791588 0.359359
vt 0.294242 0.829067
vt 0.435020 0.829067
vt 0.650810 0.612312
vt 0.617584 0.829067
vt 0.617584 0.181075
vn 0.000000 -1.000000 0.000000
vn -0.000000 1.000000 0.000000
vn 1.000000 -0.000000 0.000000
vn -0.000000 0.000001 1.000000
vn -1.000000 -0.000000 -0.000000
vn 0.000000 0.000000 -1.000000
vn 0.000000 0.000000 1.000000
vn 1.000000 0.000000 0.000001
vn -0.000001 -0.000001 1.000000
vn -0.000001 0.000000 1.000000
s off
f 1 1 1 2 2 1 4 3 1
f 5 4 2 8 5 2 6 1 2
f 1 6 3 5 7 3 2 8 3
f 6 9 4 7 6 4 11 10 4
f 3 6 5 7 7 5 4 9 5
f 5 6 6 1 11 6 8 8 6
f 11 12 1 12 13 1 16 14 1
f 7 9 7 3 15 7 10 16 7
f 3 17 1 2 18 1 9 19 1
f 2 6 7 6 7 7 9 20 7
f 13 21 7 15 22 7 14 23 7
f 10 24 2 9 25 2 14 26 2
f 9 6 5 11 27 5 13 28 5
f 12 29 3 10 11 3 16 30 3
f 2 2 1 3 31 1 4 3 1
f 8 5 2 7 3 2 6 1 2
f 5 7 8 6 32 8 2 8 8
f 7 6 9 12 33 9 11 10 9
f 7 7 5 8 34 5 4 9 5
f 1 11 6 4 35 6 8 8 6
f 15 36 1 11 12 1 16 14 1
f 12 37 7 7 9 7 10 16 7
f 10 38 2 3 17 2 9 19 2
f 6 7 7 11 39 7 9 20 7
f 15 22 10 16 40 10 14 23 10
f 9 25 2 13 41 2 14 26 2
f 11 27 5 15 42 5 13 28 5
f 10 11 3 14 43 3 16 30 3
