# Blender v2.71 (sub 0) OBJ File: ''
# www.blender.org
v 1.000000 -1.000000 -1.000000
v 1.000000 -1.000000 1.000000
v -1.000000 -1.000000 1.000000
v -1.000000 -1.000000 -1.000000
v 1.000000 1.000000 -0.999999
v 0.999999 1.000000 1.000001
v -1.000000 1.000000 1.000000
v -1.000000 1.000000 -1.000000
vt 0.989920 0.505828
vt 0.989920 0.998558
vt 0.497190 0.998558
vt 0.500337 0.499669
vt 0.000854 0.499669
vt 0.000854 0.000575
vt 0.004460 0.998558
vt 0.004460 0.505828
vt 0.004460 0.509261
vt 0.493757 0.509261
vt 0.503600 0.998300
vt 0.503600 0.499436
vt 0.999872 0.499436
vt 0.999819 0.000327
vt 0.999819 0.499726
vt 0.500420 0.499726
vt 0.497190 0.505828
vt 0.500338 0.000575
vt 0.493757 0.998558
vt 0.999872 0.998300
vt 0.500420 0.000327
vn 0.000000 -1.000000 0.000000
vn 0.000000 1.000000 0.000000
vn 1.000000 -0.000000 0.000000
vn -0.000000 -0.000000 1.000000
vn -1.000000 -0.000000 -0.000000
vn 0.000000 0.000000 -1.000000
s off
f 2/1/1 3/2/1 4/3/1
f 8/4/2 7/5/2 6/6/2
f 1/3/3 5/7/3 6/8/3
f 2/7/4 6/9/4 7/10/4
f 7/11/5 8/12/5 4/13/5
f 1/14/6 4/15/6 8/16/6
f 1/17/1 2/1/1 4/3/1
f 5/18/2 8/4/2 6/6/2
f 2/17/3 1/3/3 6/8/3
f 3/19/4 2/7/4 7/10/4
f 3/20/5 7/11/5 4/13/5
f 5/21/6 1/14/6 8/16/6
