# Blender v2.71 (sub 0) OBJ File: ''
# www.blender.org
mtllib materials.mtl
v 1.843041 3.567236 3.206898
v 1.843041 3.567236 5.206898
v -0.156959 3.567236 5.206898
v -0.156959 3.567236 3.206898
v 1.843041 5.567236 3.206899
v 1.843040 5.567236 5.206899
v -0.156959 5.567236 5.206898
v -0.156959 5.567236 3.206898
v 3.107815 2.091689 -3.991922
v 3.107815 2.091689 -1.991922
v 1.107815 2.091689 -1.991923
v 1.107816 2.091689 -3.991923
v 3.107816 4.091689 -3.991922
v 3.107815 4.091689 -1.991922
v 1.107815 4.091689 -1.991923
v 1.107815 4.091689 -3.991922
v -1.651856 3.944315 -4.281684
v -1.651856 3.944315 -2.281684
v -3.651856 3.944315 -2.281684
v -3.651856 3.944315 -4.281684
v -1.651856 5.944315 -4.281683
v -1.651857 5.944315 -2.281683
v -3.651856 5.944315 -2.281684
v -3.651856 5.944315 -4.281684
vt 0.006410 0.673077
vt 0.326923 0.673077
vt 0.326923 0.993590
vt 0.006410 0.993590
vt 0.326923 0.326923
vt 0.006410 0.326923
vt 0.006410 0.006410
vt 0.339744 0.326923
vt 0.339744 0.006410
vt 0.660256 0.006410
vt 0.326923 0.006410
vt 0.660256 0.326923
vt 0.993590 0.006410
vt 0.993590 0.326923
vt 0.673077 0.326923
vt 0.673077 0.006410
vt 0.326923 0.339744
vt 0.326923 0.660256
vt 0.006410 0.660256
vt 0.673077 0.660257
vt 0.673077 0.339744
vt 0.993590 0.339744
vt 0.006410 0.339744
vt 0.993590 0.660257
vn 0.000000 -1.000000 0.000000
vn 1.000000 0.000000 0.000000
vn -0.000000 -0.000000 1.000000
vn 0.000000 1.000000 -0.000000
vn 0.000000 0.000000 -1.000000
vn -1.000000 -0.000000 -0.000000
usemtl wood_col
s off
f 1/1/1 2/2/1 3/3/1
f 4/4/1 1/1/1 3/3/1
usemtl stone
f 1/5/2 5/6/2 6/7/2
f 2/8/3 6/9/3 7/10/3
f 9/5/2 13/6/2 14/7/2
f 2/11/2 1/5/2 6/7/2
f 3/12/3 2/8/3 7/10/3
f 10/11/2 9/5/2 14/7/2
usemtl wood_col
f 5/13/4 8/14/4 7/15/4
f 13/13/4 16/14/4 15/15/4
f 24/14/4 23/15/4 22/16/4
f 6/16/4 5/13/4 7/15/4
f 14/16/4 13/13/4 15/15/4
f 21/13/4 24/14/4 22/16/4
usemtl sail_col
f 1/17/5 4/18/5 8/19/5
f 15/20/6 16/21/6 12/22/6
f 5/23/5 1/17/5 8/19/5
f 11/24/6 15/20/6 12/22/6
usemtl wood_col
f 17/1/1 18/2/1 19/3/1
f 18/8/3 22/9/3 23/10/3
f 20/4/1 17/1/1 19/3/1
f 19/12/3 18/8/3 23/10/3
usemtl rooftiles
f 10/2/1 11/3/1 12/4/1
f 10/8/3 14/9/3 15/10/3
f 9/1/1 10/2/1 12/4/1
f 11/12/3 10/8/3 15/10/3
usemtl sail_col
f 17/5/2 21/6/2 22/7/2
f 18/11/2 17/5/2 22/7/2
usemtl sail_col
f 17/17/5 20/18/5 24/19/5
f 21/23/5 17/17/5 24/19/5
usemtl sail_col
f 9/17/5 12/18/5 16/19/5
f 13/23/5 9/17/5 16/19/5
usemtl log_edge
f 7/20/6 8/21/6 4/22/6
f 23/20/6 24/21/6 20/22/6
f 3/24/6 7/20/6 4/22/6
f 19/24/6 23/20/6 20/22/6
