# Blender v2.71 (sub 0) OBJ File: 'skydome.blend'
# www.blender.org
v -112.309906 564.619995 0.000000
v -220.303802 531.860413 0.000000
v -319.831512 478.661682 0.000000
v -407.068298 407.068298 0.000000
v -478.661743 319.831482 0.000000
v -531.860413 220.303787 0.000000
v -564.619995 112.309914 0.000000
v -575.681519 0.000043 0.000000
v -110.151894 564.619995 -21.910608
v -216.070724 531.860413 -42.979179
v -313.686035 478.661682 -62.396076
v -399.246613 407.068298 -79.415131
v -469.464355 319.831482 -93.382301
v -521.640808 220.303787 -103.760841
v -553.770935 112.309914 -110.151932
v -564.619995 0.000043 -112.309937
v -103.760818 564.619995 -42.979210
v -203.534149 531.860413 -84.306679
v -295.485779 478.661682 -122.394295
v -376.082031 407.068298 -155.778366
v -442.225739 319.831482 -183.175964
v -491.374878 220.303787 -203.534210
v -521.640808 112.309914 -216.070801
v -531.860352 0.000043 -220.303864
v -93.382240 564.619995 -62.396145
v -183.175888 531.860413 -122.394341
v -265.930176 478.661682 -177.688980
v -338.464905 407.068298 -226.155121
v -397.992615 319.831482 -265.930298
v -442.225677 220.303787 -295.485870
v -469.464264 112.309914 -313.686127
v -478.661621 0.000043 -319.831696
v -79.415039 564.619995 -79.415230
v -155.778244 531.860413 -155.778458
v -226.154968 478.661682 -226.155167
v -287.840698 407.068298 -287.840851
v -338.464874 319.831482 -338.465057
v -376.082001 220.303787 -376.082214
v -399.246490 112.309914 -399.246735
v -407.068237 0.000043 -407.068481
v -62.395954 564.619995 -93.382416
v -122.394157 531.860413 -183.176071
v -177.688797 478.661682 -265.930328
v -226.154938 407.068298 -338.465057
v -265.930084 319.831482 -397.992767
v -295.485718 220.303787 -442.225861
v -313.685913 112.309914 -469.464478
v -319.831421 0.000043 -478.661865
v -42.979019 564.619995 -103.760994
v -84.306511 531.860413 -203.534332
v -122.394112 478.661682 -295.485931
v -155.778152 407.068298 -376.082245
v -183.175766 319.831482 -442.225891
v -203.534073 220.303787 -491.375092
v -216.070496 112.309914 -521.640869
v -220.303635 0.000043 -531.860474
v -21.910418 564.619995 -110.152061
v -42.978989 531.860413 -216.070862
v -62.395885 478.661682 -313.686188
v -79.414932 407.068298 -399.246765
v -93.382088 319.831482 -469.464508
v -103.760674 220.303787 -521.640869
v -110.151680 112.309914 -553.770996
v -112.309723 0.000043 -564.620117
v 0.000188 564.619995 -112.310066
v 0.000184 531.860413 -220.303940
v 0.000179 478.661682 -319.831696
v 0.000184 407.068298 -407.068420
v 0.000192 319.831482 -478.661865
v 0.000158 220.303787 -531.860474
v 0.000227 112.309914 -564.619995
v 0.000218 0.000043 -575.681702
v 21.910793 564.619995 -110.152061
v 42.979355 531.860413 -216.070862
v 62.396252 478.661682 -313.686188
v 79.415291 407.068298 -399.246735
v 93.382469 319.831482 -469.464478
v 103.760994 220.303787 -521.640869
v 110.152115 112.309914 -553.770935
v 112.310150 0.000043 -564.620117
v 42.979389 564.619995 -103.760963
v 84.306847 531.860413 -203.534302
v 122.394470 478.661682 -295.485901
v 155.778503 407.068298 -376.082214
v 183.176132 319.831482 -442.225769
v 203.534363 220.303787 -491.375092
v 216.070923 112.309914 -521.640808
v 220.304031 0.000043 -531.860474
v 62.396305 564.619995 -93.382385
v 122.394470 531.860413 -183.176025
v 177.689117 478.661682 -265.930298
v 226.155243 407.068298 -338.465057
v 265.930450 319.831482 -397.992737
v 295.485992 220.303787 -442.225800
v 313.686279 112.309914 -469.464325
v 319.831757 0.000043 -478.661774
v 79.415382 564.619995 -79.415192
v 155.778580 531.860413 -155.778412
v 226.155289 478.661682 -226.155121
v 287.840973 407.068298 -287.840820
v 338.465149 319.831482 -338.464905
v 376.082336 220.303787 -376.082214
v 399.246765 112.309914 -399.246582
v 407.068604 0.000043 -407.068298
v 93.382561 564.619995 -62.396103
v 183.176163 531.860413 -122.394295
v 265.930450 478.661682 -177.688919
v 338.465149 407.068298 -226.155060
v 397.992859 319.831482 -265.930176
v 442.225983 220.303787 -295.485870
v 469.464508 112.309914 -313.686005
v 478.661987 0.000043 -319.831512
v 103.761124 564.619995 -42.979187
v 203.534424 531.860413 -84.306664
v 295.486084 478.661682 -122.394279
v 376.082336 407.068298 -155.778275
v 442.225922 319.831482 -183.175842
v 491.375122 220.303787 -203.534210
v 521.640930 112.309914 -216.070648
v 531.860657 0.000043 -220.303787
v 110.152206 564.619995 -21.910597
v 216.070969 531.860413 -42.979176
v 313.686310 478.661682 -62.396069
v 399.246826 407.068298 -79.415085
v 469.464508 319.831482 -93.382210
v 521.641052 220.303787 -103.760849
v 553.771057 112.309914 -110.151840
v 564.620239 0.000043 -112.309853
v 112.310204 564.619995 0.000004
v 220.304031 531.860413 -0.000024
v 319.831757 478.661682 -0.000015
v 407.068512 407.068298 0.000015
v 478.661774 319.831482 0.000049
v 531.860596 220.303787 -0.000037
v 564.620117 112.309914 0.000049
v 575.681702 0.000043 0.000058
v 110.152184 564.619995 21.910601
v 216.070923 531.860413 42.979126
v 313.686310 478.661682 62.396030
v 399.246765 407.068298 79.415108
v 469.464386 319.831482 93.382301
v 521.641052 220.303787 103.760788
v 553.770996 112.309914 110.151909
v 564.620178 0.000043 112.309975
v 103.761093 564.619995 42.979179
v 203.534378 531.860413 84.306602
v 295.486084 478.661682 122.394226
v 376.082275 407.068298 155.778305
v 442.225769 319.831482 183.175903
v 491.375122 220.303787 203.534119
v 521.640808 112.309914 216.070709
v 531.860535 0.000043 220.303879
v 93.382530 564.619995 62.396091
v 183.176102 531.860413 122.394218
v 265.930450 478.661682 177.688889
v 338.465118 407.068298 226.155045
v 397.992706 319.831482 265.930176
v 442.225922 220.303787 295.485779
v 469.464355 112.309914 313.686005
v 478.661865 0.000043 319.831635
v 79.415344 564.619995 79.415161
v 155.778488 531.860413 155.778305
v 226.155273 478.661682 226.155060
v 287.840881 407.068298 287.840759
v 338.464905 319.831482 338.464874
v 376.082275 220.303787 376.082031
v 399.246613 112.309914 399.246521
v 407.068420 0.000043 407.068390
v 62.396271 564.619995 93.382347
v 122.394402 531.860413 183.175903
v 177.689072 478.661682 265.930206
v 226.155182 407.068298 338.464905
v 265.930206 319.831482 397.992523
v 295.485992 220.303787 442.225739
v 313.686005 112.309914 469.464233
v 319.831635 0.000043 478.661743
v 42.979355 564.619995 103.760902
v 84.306763 531.860413 203.534134
v 122.394402 478.661682 295.485809
v 155.778427 407.068298 376.082031
v 183.175949 319.831482 442.225616
v 203.534363 220.303787 491.374939
v 216.070679 112.309914 521.640747
v 220.303864 0.000043 531.860413
v 21.910769 564.619995 110.151970
v 42.979298 531.860413 216.070663
v 62.396198 478.661682 313.686035
v 79.415215 407.068298 399.246613
v 93.382301 319.831482 469.464142
v 103.761002 220.303787 521.640808
v 110.151909 112.309914 553.770752
v 112.309975 0.000043 564.619934
v 0.000179 564.619995 112.309975
v 0.000162 531.860413 220.303757
v 0.000162 478.661682 319.831482
v 0.000107 407.068298 407.068268
v 0.000081 319.831482 478.661560
v 0.000184 220.303787 531.860352
v 0.000055 112.309914 564.619751
v 0.000081 0.000043 575.681396
v -21.910410 564.619995 110.151970
v -42.978966 531.860413 216.070663
v -62.395870 478.661682 313.686005
v -79.414978 407.068298 399.246582
v -93.382141 319.831482 469.464111
v -103.760635 220.303787 521.640808
v -110.151787 112.309914 553.770630
v -112.309814 0.000043 564.619873
v -42.978981 564.619995 103.760902
v -84.306435 531.860413 203.534119
v -122.394066 478.661682 295.485748
v -155.778183 407.068298 376.082001
v -183.175735 319.831482 442.225433
v -203.533966 220.303787 491.374878
v -216.070541 112.309914 521.640503
v -220.303680 0.000043 531.860168
v -62.395893 564.619995 93.382324
v -122.394043 531.860413 183.175842
v -177.688690 478.661682 265.930115
v -226.154922 407.068298 338.464874
v -265.929993 319.831482 397.992401
v -295.485596 220.303787 442.225677
v -313.685822 112.309914 469.464081
v -319.831390 0.000043 478.661560
v -79.414963 564.619995 79.415131
v -155.778122 531.860413 155.778244
v -226.154846 478.661682 226.154968
v -287.840607 407.068298 287.840698
v -338.464691 319.831482 338.464630
v -376.081879 220.303787 376.082031
v -399.246338 112.309914 399.246338
v -407.068146 0.000043 407.068146
v -93.382141 564.619995 62.396069
v -183.175659 531.860413 122.394165
v -265.929993 478.661682 177.688797
v -338.464783 407.068298 226.154938
v -397.992371 319.831482 265.929932
v -442.225525 220.303787 295.485748
v -469.463959 112.309914 313.685760
v -478.661438 0.000043 319.831268
v 0.000014 575.681519 0.000072
v -103.760704 564.619995 42.979149
v -203.533936 531.860413 84.306557
v -295.485596 478.661682 122.394142
v -376.081909 407.068298 155.778214
v -442.225403 319.831482 183.175644
v -491.374695 220.303787 203.534119
v -521.640381 112.309914 216.070435
v -531.860046 0.000043 220.303574
v -110.151787 564.619995 21.910570
v -216.070480 531.860413 42.979084
v -313.685760 478.661682 62.395962
v -399.246399 407.068298 79.414986
v -469.463959 319.831482 93.382057
v -521.640564 220.303787 103.760765
v -553.770447 112.309914 110.151680
v -564.619568 0.000043 112.309715
vt 0.058600 0.587717
vt 0.118453 0.575812
vt 0.110947 0.499598
vt 0.175120 0.499598
vt 0.181393 0.563292
vt 0.229027 0.553817
vt 0.278065 0.544063
vt 0.325971 0.534534
vt 0.322530 0.499598
vt 0.366291 0.499598
vt 0.368891 0.525997
vt 0.418980 0.516033
vt 0.223687 0.499598
vt 0.244842 0.605953
vt 0.291035 0.586819
vt 0.336161 0.568127
vt 0.376591 0.551381
vt 0.084303 0.672451
vt 0.140684 0.649097
vt 0.199972 0.624539
vt 0.423774 0.531837
vt 0.270525 0.654001
vt 0.312097 0.626224
vt 0.352710 0.599087
vt 0.389095 0.574775
vt 0.126043 0.750541
vt 0.176785 0.716637
vt 0.230142 0.680984
vt 0.431559 0.546402
vt 0.305088 0.696116
vt 0.340442 0.660762
vt 0.374980 0.626224
vt 0.405923 0.595280
vt 0.182216 0.818988
vt 0.225368 0.775836
vt 0.270745 0.730458
vt 0.442036 0.559168
vt 0.347202 0.730679
vt 0.374980 0.689107
vt 0.402116 0.648494
vt 0.426429 0.612108
vt 0.250663 0.875160
vt 0.284567 0.824419
vt 0.320220 0.771061
vt 0.454802 0.569645
vt 0.395251 0.756361
vt 0.414384 0.710169
vt 0.433076 0.665042
vt 0.449823 0.624613
vt 0.328753 0.916900
vt 0.352107 0.860520
vt 0.376665 0.801232
vt 0.469367 0.577430
vt 0.447386 0.772176
vt 0.457141 0.723139
vt 0.466670 0.675233
vt 0.475207 0.632313
vt 0.413486 0.942604
vt 0.425392 0.882751
vt 0.437911 0.819811
vt 0.485170 0.582224
vt 0.501606 0.777516
vt 0.501606 0.727518
vt 0.501606 0.678674
vt 0.501606 0.634913
vt 0.501606 0.951283
vt 0.501606 0.890257
vt 0.501606 0.826084
vt 0.501606 0.583842
vt 0.555825 0.772176
vt 0.546071 0.723139
vt 0.536542 0.675233
vt 0.528004 0.632313
vt 0.589725 0.942604
vt 0.577819 0.882751
vt 0.565300 0.819811
vt 0.518041 0.582224
vt 0.607960 0.756361
vt 0.588827 0.710169
vt 0.570135 0.665042
vt 0.553388 0.624613
vt 0.674458 0.916900
vt 0.651104 0.860520
vt 0.626546 0.801232
vt 0.533844 0.577430
vt 0.656009 0.730679
vt 0.628231 0.689107
vt 0.601095 0.648494
vt 0.576783 0.612108
vt 0.752548 0.875160
vt 0.718644 0.824419
vt 0.682991 0.771061
vt 0.548409 0.569645
vt 0.698123 0.696116
vt 0.662769 0.660762
vt 0.628231 0.626224
vt 0.597288 0.595280
vt 0.820995 0.818988
vt 0.777843 0.775836
vt 0.732466 0.730458
vt 0.561175 0.559168
vt 0.732686 0.654001
vt 0.691114 0.626224
vt 0.650502 0.599087
vt 0.614116 0.574775
vt 0.877168 0.750541
vt 0.826427 0.716637
vt 0.773069 0.680984
vt 0.571652 0.546402
vt 0.758369 0.605953
vt 0.712176 0.586819
vt 0.667050 0.568127
vt 0.626620 0.551381
vt 0.918908 0.672451
vt 0.862527 0.649097
vt 0.803239 0.624539
vt 0.579437 0.531837
vt 0.774184 0.553817
vt 0.725146 0.544063
vt 0.677240 0.534534
vt 0.634321 0.525997
vt 0.944611 0.587717
vt 0.884758 0.575812
vt 0.821818 0.563292
vt 0.584231 0.516033
vt 0.779524 0.499598
vt 0.729525 0.499598
vt 0.680681 0.499598
vt 0.636920 0.499598
vt 0.953290 0.499598
vt 0.892264 0.499598
vt 0.828091 0.499598
vt 0.585850 0.499598
vt 0.774184 0.445379
vt 0.725146 0.455133
vt 0.677240 0.464662
vt 0.634320 0.473199
vt 0.944611 0.411479
vt 0.884758 0.423384
vt 0.821818 0.435904
vt 0.584231 0.483163
vt 0.758368 0.393243
vt 0.712176 0.412377
vt 0.667050 0.431069
vt 0.626620 0.447815
vt 0.918908 0.326746
vt 0.862527 0.350100
vt 0.803239 0.374658
vt 0.579437 0.467359
vt 0.732686 0.345195
vt 0.691114 0.372973
vt 0.650502 0.400109
vt 0.614116 0.424421
vt 0.877168 0.248655
vt 0.826426 0.282560
vt 0.773069 0.318213
vt 0.571652 0.452795
vt 0.698123 0.303080
vt 0.662769 0.338434
vt 0.628231 0.372973
vt 0.597288 0.403916
vt 0.820995 0.180209
vt 0.777843 0.223361
vt 0.732466 0.268738
vt 0.561175 0.440029
vt 0.656009 0.268518
vt 0.628231 0.310090
vt 0.601095 0.350702
vt 0.576783 0.387088
vt 0.752548 0.124036
vt 0.718644 0.174777
vt 0.682991 0.228135
vt 0.548409 0.429552
vt 0.607960 0.242835
vt 0.588827 0.289028
vt 0.570135 0.334154
vt 0.553388 0.374584
vt 0.674458 0.082296
vt 0.651104 0.138677
vt 0.626546 0.197965
vt 0.533844 0.421767
vt 0.555825 0.227020
vt 0.546071 0.276058
vt 0.536542 0.323964
vt 0.528004 0.366883
vt 0.589725 0.056593
vt 0.577819 0.116446
vt 0.565300 0.179386
vt 0.518041 0.416973
vt 0.501605 0.221680
vt 0.501605 0.271678
vt 0.501606 0.320523
vt 0.501606 0.364283
vt 0.501605 0.047914
vt 0.501605 0.108940
vt 0.501606 0.173112
vt 0.501606 0.415354
vt 0.447386 0.227020
vt 0.457141 0.276058
vt 0.466670 0.323964
vt 0.475207 0.366883
vt 0.413486 0.056593
vt 0.425392 0.116446
vt 0.437911 0.179386
vt 0.485170 0.416973
vt 0.395251 0.242835
vt 0.414384 0.289028
vt 0.433076 0.334154
vt 0.449823 0.374584
vt 0.328753 0.082296
vt 0.352107 0.138677
vt 0.376665 0.197965
vt 0.469367 0.421767
vt 0.347203 0.268518
vt 0.374980 0.310090
vt 0.402116 0.350702
vt 0.426429 0.387088
vt 0.250663 0.124036
vt 0.284567 0.174777
vt 0.320220 0.228135
vt 0.454802 0.429552
vt 0.305088 0.303080
vt 0.340442 0.338435
vt 0.374980 0.372973
vt 0.405923 0.403916
vt 0.182216 0.180209
vt 0.225368 0.223361
vt 0.270745 0.268738
vt 0.442036 0.440029
vt 0.270525 0.345195
vt 0.312097 0.372973
vt 0.352710 0.400109
vt 0.389095 0.424421
vt 0.126043 0.248656
vt 0.176785 0.282560
vt 0.230143 0.318213
vt 0.431559 0.452795
vt 0.244843 0.393244
vt 0.291035 0.412377
vt 0.336161 0.431069
vt 0.376591 0.447815
vt 0.084303 0.326746
vt 0.140684 0.350100
vt 0.199972 0.374658
vt 0.423774 0.467359
vt 0.229028 0.445379
vt 0.278065 0.455133
vt 0.325971 0.464662
vt 0.368891 0.473200
vt 0.058600 0.411479
vt 0.118453 0.423385
vt 0.181393 0.435904
vt 0.418980 0.483163
vt 0.417361 0.499598
vt 0.501605 0.499598
vt 0.273686 0.499598
vt 0.049921 0.499598
vn 0.976100 -0.098000 0.194200
vn 0.962200 -0.193900 0.191400
vn 0.981000 -0.193900 0.000000
vn 0.924700 -0.380500 0.000000
vn 0.907000 -0.380500 0.180400
vn 0.817300 -0.552800 0.162600
vn 0.696500 -0.704000 0.138500
vn 0.549000 -0.828600 0.109200
vn 0.559800 -0.828600 0.000000
vn 0.387900 -0.921700 0.000000
vn 0.380400 -0.921700 0.075700
vn 0.197100 -0.979600 0.039200
vn 0.833300 -0.552800 0.000000
vn 0.769900 -0.552800 0.318900
vn 0.656100 -0.704000 0.271700
vn 0.517100 -0.828600 0.214200
vn 0.358300 -0.921700 0.148400
vn 0.919400 -0.098000 0.380800
vn 0.906300 -0.193900 0.375400
vn 0.854400 -0.380500 0.353900
vn 0.185600 -0.979600 0.076900
vn 0.692900 -0.552800 0.463000
vn 0.590400 -0.704000 0.394500
vn 0.465400 -0.828600 0.311000
vn 0.322500 -0.921700 0.215500
vn 0.827500 -0.098000 0.552900
vn 0.815700 -0.193900 0.545000
vn 0.768900 -0.380500 0.513700
vn 0.167100 -0.979600 0.111600
vn 0.589300 -0.552800 0.589300
vn 0.502100 -0.704000 0.502100
vn 0.395800 -0.828600 0.395800
vn 0.274300 -0.921700 0.274300
vn 0.703700 -0.098000 0.703700
vn 0.693700 -0.193900 0.693700
vn 0.653900 -0.380500 0.653900
vn 0.142100 -0.979600 0.142100
vn 0.463000 -0.552800 0.692900
vn 0.394500 -0.704000 0.590400
vn 0.311000 -0.828600 0.465400
vn 0.215500 -0.921700 0.322500
vn 0.552900 -0.098000 0.827500
vn 0.545000 -0.193900 0.815700
vn 0.513700 -0.380500 0.768900
vn 0.111600 -0.979600 0.167100
vn 0.318900 -0.552800 0.769900
vn 0.271700 -0.704000 0.656100
vn 0.214200 -0.828600 0.517100
vn 0.148400 -0.921700 0.358300
vn 0.380800 -0.098000 0.919400
vn 0.375400 -0.193900 0.906300
vn 0.353900 -0.380500 0.854400
vn 0.076900 -0.979600 0.185600
vn 0.162600 -0.552800 0.817300
vn 0.138500 -0.704000 0.696500
vn 0.109200 -0.828600 0.549000
vn 0.075700 -0.921700 0.380400
vn 0.194200 -0.098000 0.976100
vn 0.191400 -0.193900 0.962200
vn 0.180400 -0.380500 0.907000
vn 0.039200 -0.979600 0.197100
vn 0.000000 -0.552800 0.833300
vn 0.000000 -0.704000 0.710100
vn 0.000000 -0.828600 0.559800
vn 0.000000 -0.921700 0.387900
vn -0.000000 -0.098000 0.995200
vn 0.000000 -0.193900 0.981000
vn 0.000000 -0.380500 0.924700
vn 0.000000 -0.979600 0.201000
vn -0.162600 -0.552800 0.817300
vn -0.138500 -0.704000 0.696500
vn -0.109200 -0.828600 0.549000
vn -0.075700 -0.921700 0.380400
vn -0.194200 -0.098000 0.976100
vn -0.191400 -0.193900 0.962200
vn -0.180400 -0.380500 0.907000
vn -0.039200 -0.979600 0.197100
vn -0.318900 -0.552800 0.769900
vn -0.271700 -0.704000 0.656100
vn -0.214200 -0.828600 0.517100
vn -0.148400 -0.921700 0.358300
vn -0.380800 -0.098000 0.919400
vn -0.375400 -0.193900 0.906300
vn -0.353900 -0.380500 0.854400
vn -0.076900 -0.979600 0.185600
vn -0.463000 -0.552800 0.692900
vn -0.394500 -0.704000 0.590400
vn -0.311000 -0.828600 0.465400
vn -0.215500 -0.921700 0.322500
vn -0.552900 -0.098000 0.827500
vn -0.545000 -0.193900 0.815700
vn -0.513700 -0.380500 0.768900
vn -0.111600 -0.979600 0.167100
vn -0.589300 -0.552800 0.589300
vn -0.502100 -0.704000 0.502100
vn -0.395800 -0.828600 0.395800
vn -0.274300 -0.921700 0.274300
vn -0.703700 -0.098000 0.703700
vn -0.693700 -0.193900 0.693700
vn -0.653900 -0.380500 0.653900
vn -0.142100 -0.979600 0.142100
vn -0.692900 -0.552800 0.463000
vn -0.590400 -0.704000 0.394500
vn -0.465400 -0.828600 0.311000
vn -0.322500 -0.921700 0.215500
vn -0.827500 -0.098000 0.552900
vn -0.815700 -0.193900 0.545000
vn -0.768900 -0.380500 0.513700
vn -0.167100 -0.979600 0.111600
vn -0.769900 -0.552800 0.318900
vn -0.656100 -0.704000 0.271700
vn -0.517100 -0.828600 0.214200
vn -0.358300 -0.921700 0.148400
vn -0.919400 -0.098000 0.380800
vn -0.906300 -0.193900 0.375400
vn -0.854400 -0.380500 0.353900
vn -0.185600 -0.979600 0.076900
vn -0.817300 -0.552800 0.162600
vn -0.696500 -0.704000 0.138500
vn -0.549000 -0.828600 0.109200
vn -0.380400 -0.921700 0.075700
vn -0.976100 -0.098000 0.194200
vn -0.962200 -0.193900 0.191400
vn -0.907000 -0.380500 0.180400
vn -0.197100 -0.979600 0.039200
vn -0.833300 -0.552800 0.000000
vn -0.710100 -0.704000 0.000000
vn -0.559800 -0.828600 0.000000
vn -0.387900 -0.921700 0.000000
vn -0.995200 -0.098000 -0.000000
vn -0.981000 -0.193900 0.000000
vn -0.924700 -0.380500 0.000000
vn -0.201000 -0.979600 0.000000
vn -0.817300 -0.552800 -0.162600
vn -0.696500 -0.704000 -0.138500
vn -0.549000 -0.828600 -0.109200
vn -0.380400 -0.921700 -0.075700
vn -0.976100 -0.098000 -0.194200
vn -0.962200 -0.193900 -0.191400
vn -0.907000 -0.380500 -0.180400
vn -0.197100 -0.979600 -0.039200
vn -0.769900 -0.552800 -0.318900
vn -0.656100 -0.704000 -0.271700
vn -0.517100 -0.828600 -0.214200
vn -0.358300 -0.921700 -0.148400
vn -0.919400 -0.098000 -0.380800
vn -0.906300 -0.193900 -0.375400
vn -0.854400 -0.380500 -0.353900
vn -0.185600 -0.979600 -0.076900
vn -0.692900 -0.552800 -0.463000
vn -0.590400 -0.704000 -0.394500
vn -0.465400 -0.828600 -0.311000
vn -0.322500 -0.921700 -0.215500
vn -0.827500 -0.098000 -0.552900
vn -0.815700 -0.193900 -0.545000
vn -0.768900 -0.380500 -0.513700
vn -0.167100 -0.979600 -0.111600
vn -0.589300 -0.552800 -0.589300
vn -0.502100 -0.704000 -0.502100
vn -0.395800 -0.828600 -0.395800
vn -0.274300 -0.921700 -0.274300
vn -0.703700 -0.098000 -0.703700
vn -0.693700 -0.193900 -0.693700
vn -0.653900 -0.380500 -0.653900
vn -0.142100 -0.979600 -0.142100
vn -0.463000 -0.552800 -0.692900
vn -0.394500 -0.704000 -0.590400
vn -0.311000 -0.828600 -0.465400
vn -0.215500 -0.921700 -0.322500
vn -0.552900 -0.098000 -0.827500
vn -0.545000 -0.193900 -0.815700
vn -0.513700 -0.380500 -0.768900
vn -0.111600 -0.979600 -0.167100
vn -0.318900 -0.552800 -0.769900
vn -0.271700 -0.704000 -0.656100
vn -0.214200 -0.828600 -0.517100
vn -0.148400 -0.921700 -0.358300
vn -0.380800 -0.098000 -0.919400
vn -0.375400 -0.193900 -0.906300
vn -0.353900 -0.380500 -0.854400
vn -0.076900 -0.979600 -0.185600
vn -0.162600 -0.552800 -0.817300
vn -0.138500 -0.704000 -0.696500
vn -0.109200 -0.828600 -0.549000
vn -0.075700 -0.921700 -0.380400
vn -0.194200 -0.098000 -0.976100
vn -0.191400 -0.193900 -0.962200
vn -0.180400 -0.380500 -0.907000
vn -0.039200 -0.979600 -0.197100
vn 0.000000 -0.552800 -0.833300
vn 0.000000 -0.704000 -0.710100
vn 0.000000 -0.828600 -0.559800
vn 0.000000 -0.921700 -0.387900
vn 0.000000 -0.098000 -0.995200
vn 0.000000 -0.193900 -0.981000
vn 0.000000 -0.380500 -0.924700
vn 0.000000 -0.979600 -0.201000
vn 0.162600 -0.552800 -0.817300
vn 0.138500 -0.704000 -0.696500
vn 0.109200 -0.828600 -0.549000
vn 0.075700 -0.921700 -0.380400
vn 0.194200 -0.098000 -0.976100
vn 0.191400 -0.193900 -0.962200
vn 0.180400 -0.380500 -0.907000
vn 0.039200 -0.979600 -0.197100
vn 0.318900 -0.552800 -0.769900
vn 0.271700 -0.704000 -0.656100
vn 0.214200 -0.828600 -0.517100
vn 0.148400 -0.921700 -0.358300
vn 0.380800 -0.098000 -0.919400
vn 0.375400 -0.193900 -0.906300
vn 0.353900 -0.380500 -0.854400
vn 0.076900 -0.979600 -0.185600
vn 0.463000 -0.552800 -0.692900
vn 0.394500 -0.704000 -0.590400
vn 0.311000 -0.828600 -0.465400
vn 0.215500 -0.921700 -0.322500
vn 0.552900 -0.098000 -0.827500
vn 0.545000 -0.193900 -0.815700
vn 0.513700 -0.380500 -0.768900
vn 0.111600 -0.979600 -0.167100
vn 0.589300 -0.552800 -0.589300
vn 0.502100 -0.704000 -0.502100
vn 0.395800 -0.828600 -0.395800
vn 0.274300 -0.921700 -0.274300
vn 0.703700 -0.098000 -0.703700
vn 0.693700 -0.193900 -0.693700
vn 0.653900 -0.380500 -0.653900
vn 0.142100 -0.979600 -0.142100
vn 0.692900 -0.552800 -0.463000
vn 0.590400 -0.704000 -0.394500
vn 0.465400 -0.828600 -0.311000
vn 0.322500 -0.921700 -0.215500
vn 0.827500 -0.098000 -0.552900
vn 0.815700 -0.193900 -0.545000
vn 0.768900 -0.380500 -0.513700
vn 0.167100 -0.979600 -0.111600
vn 0.769900 -0.552800 -0.318900
vn 0.656100 -0.704000 -0.271700
vn 0.517100 -0.828600 -0.214200
vn 0.358300 -0.921700 -0.148400
vn 0.919400 -0.098000 -0.380800
vn 0.906300 -0.193900 -0.375400
vn 0.854400 -0.380500 -0.353900
vn 0.185600 -0.979600 -0.076900
vn 0.817300 -0.552800 -0.162600
vn 0.696500 -0.704000 -0.138500
vn 0.549000 -0.828600 -0.109200
vn 0.380400 -0.921700 -0.075700
vn 0.976100 -0.098000 -0.194200
vn 0.962200 -0.193900 -0.191400
vn 0.907000 -0.380500 -0.180400
vn 0.197100 -0.979600 -0.039200
vn 0.201000 -0.979600 0.000000
vn 0.000000 -1.000000 0.000000
vn 0.710100 -0.704000 0.000000
vn 0.995200 -0.098000 -0.000000
s 1
usemtl skydome_nano
f 16/1/1 15/2/2 7/3/3
f 6/4/4 14/5/5 13/6/6
f 12/7/7 11/8/8 3/9/9
f 2/10/10 10/11/11 9/12/12
f 7/3/3 15/2/2 14/5/5
f 5/13/13 13/6/6 12/7/7
f 11/8/8 10/11/11 2/10/10
f 13/6/6 21/14/14 20/15/15
f 19/16/16 18/17/17 10/11/11
f 24/18/18 23/19/19 15/2/2
f 22/20/20 21/14/14 13/6/6
f 12/7/7 20/15/15 19/16/16
f 18/17/17 17/21/21 9/12/12
f 23/19/19 22/20/20 14/5/5
f 29/22/22 28/23/23 20/15/15
f 27/24/24 26/25/25 18/17/17
f 32/26/26 31/27/27 23/19/19
f 22/20/20 30/28/28 29/22/22
f 28/23/23 27/24/24 19/16/16
f 26/25/25 25/29/29 17/21/21
f 31/27/27 30/28/28 22/20/20
f 37/30/30 36/31/31 28/23/23
f 27/24/24 35/32/32 34/33/33
f 40/34/34 39/35/35 31/27/27
f 30/28/28 38/36/36 37/30/30
f 28/23/23 36/31/31 35/32/32
f 34/33/33 33/37/37 25/29/29
f 39/35/35 38/36/36 30/28/28
f 45/38/38 44/39/39 36/31/31
f 43/40/40 42/41/41 34/33/33
f 48/42/42 47/43/43 39/35/35
f 38/36/36 46/44/44 45/38/38
f 44/39/39 43/40/40 35/32/32
f 42/41/41 41/45/45 33/37/37
f 47/43/43 46/44/44 38/36/36
f 53/46/46 52/47/47 44/39/39
f 51/48/48 50/49/49 42/41/41
f 48/42/42 56/50/50 55/51/51
f 54/52/52 53/46/46 45/38/38
f 52/47/47 51/48/48 43/40/40
f 50/49/49 49/53/53 41/45/45
f 55/51/51 54/52/52 46/44/44
f 61/54/54 60/55/55 52/47/47
f 59/56/56 58/57/57 50/49/49
f 56/50/50 64/58/58 63/59/59
f 54/52/52 62/60/60 61/54/54
f 60/55/55 59/56/56 51/48/48
f 50/49/49 58/57/57 57/61/61
f 63/59/59 62/60/60 54/52/52
f 69/62/62 68/63/63 60/55/55
f 67/64/64 66/65/65 58/57/57
f 72/66/66 71/67/67 63/59/59
f 70/68/68 69/62/62 61/54/54
f 68/63/63 67/64/64 59/56/56
f 66/65/65 65/69/69 57/61/61
f 71/67/67 70/68/68 62/60/60
f 77/70/70 76/71/71 68/63/63
f 67/64/64 75/72/72 74/73/73
f 80/74/74 79/75/75 71/67/67
f 70/68/68 78/76/76 77/70/70
f 68/63/63 76/71/71 75/72/72
f 66/65/65 74/73/73 73/77/77
f 79/75/75 78/76/76 70/68/68
f 77/70/70 85/78/78 84/79/79
f 75/72/72 83/80/80 82/81/81
f 88/82/82 87/83/83 79/75/75
f 78/76/76 86/84/84 85/78/78
f 76/71/71 84/79/79 83/80/80
f 82/81/81 81/85/85 73/77/77
f 87/83/83 86/84/84 78/76/76
f 93/86/86 92/87/87 84/79/79
f 91/88/88 90/89/89 82/81/81
f 96/90/90 95/91/91 87/83/83
f 86/84/84 94/92/92 93/86/86
f 84/79/79 92/87/87 91/88/88
f 82/81/81 90/89/89 89/93/93
f 95/91/91 94/92/92 86/84/84
f 93/86/86 101/94/94 100/95/95
f 91/88/88 99/96/96 98/97/97
f 104/98/98 103/99/99 95/91/91
f 94/92/92 102/100/100 101/94/94
f 92/87/87 100/95/95 99/96/96
f 98/97/97 97/101/101 89/93/93
f 103/99/99 102/100/100 94/92/92
f 109/102/102 108/103/103 100/95/95
f 99/96/96 107/104/104 106/105/105
f 112/106/106 111/107/107 103/99/99
f 102/100/100 110/108/108 109/102/102
f 108/103/103 107/104/104 99/96/96
f 98/97/97 106/105/105 105/109/109
f 111/107/107 110/108/108 102/100/100
f 109/102/102 117/110/110 116/111/111
f 115/112/112 114/113/113 106/105/105
f 120/114/114 119/115/115 111/107/107
f 110/108/108 118/116/116 117/110/110
f 116/111/111 115/112/112 107/104/104
f 106/105/105 114/113/113 113/117/117
f 119/115/115 118/116/116 110/108/108
f 125/118/118 124/119/119 116/111/111
f 115/112/112 123/120/120 122/121/121
f 128/122/122 127/123/123 119/115/115
f 118/116/116 126/124/124 125/118/118
f 116/111/111 124/119/119 123/120/120
f 114/113/113 122/121/121 121/125/125
f 127/123/123 126/124/124 118/116/116
f 125/118/118 133/126/126 132/127/127
f 123/120/120 131/128/128 130/129/129
f 128/122/122 136/130/130 135/131/131
f 126/124/124 134/132/132 133/126/126
f 124/119/119 132/127/127 131/128/128
f 122/121/121 130/129/129 129/133/133
f 135/131/131 134/132/132 126/124/124
f 133/126/126 141/134/134 140/135/135
f 139/136/136 138/137/137 130/129/129
f 136/130/130 144/138/138 143/139/139
f 134/132/132 142/140/140 141/134/134
f 140/135/135 139/136/136 131/128/128
f 130/129/129 138/137/137 137/141/141
f 143/139/139 142/140/140 134/132/132
f 149/142/142 148/143/143 140/135/135
f 147/144/144 146/145/145 138/137/137
f 152/146/146 151/147/147 143/139/139
f 142/140/140 150/148/148 149/142/142
f 148/143/143 147/144/144 139/136/136
f 146/145/145 145/149/149 137/141/141
f 151/147/147 150/148/148 142/140/140
f 157/150/150 156/151/151 148/143/143
f 147/144/144 155/152/152 154/153/153
f 160/154/154 159/155/155 151/147/147
f 150/148/148 158/156/156 157/150/150
f 156/151/151 155/152/152 147/144/144
f 146/145/145 154/153/153 153/157/157
f 159/155/155 158/156/156 150/148/148
f 157/150/150 165/158/158 164/159/159
f 155/152/152 163/160/160 162/161/161
f 168/162/162 167/163/163 159/155/155
f 158/156/156 166/164/164 165/158/158
f 164/159/159 163/160/160 155/152/152
f 162/161/161 161/165/165 153/157/157
f 167/163/163 166/164/164 158/156/156
f 173/166/166 172/167/167 164/159/159
f 163/160/160 171/168/168 170/169/169
f 168/162/162 176/170/170 175/171/171
f 166/164/164 174/172/172 173/166/166
f 172/167/167 171/168/168 163/160/160
f 162/161/161 170/169/169 169/173/173
f 175/171/171 174/172/172 166/164/164
f 181/174/174 180/175/175 172/167/167
f 171/168/168 179/176/176 178/177/177
f 176/170/170 184/178/178 183/179/179
f 174/172/172 182/180/180 181/174/174
f 180/175/175 179/176/176 171/168/168
f 178/177/177 177/181/181 169/173/173
f 183/179/179 182/180/180 174/172/172
f 189/182/182 188/183/183 180/175/175
f 179/176/176 187/184/184 186/185/185
f 184/178/178 192/186/186 191/187/187
f 182/180/180 190/188/188 189/182/182
f 188/183/183 187/184/184 179/176/176
f 186/185/185 185/189/189 177/181/181
f 191/187/187 190/188/188 182/180/180
f 197/190/190 196/191/191 188/183/183
f 195/192/192 194/193/193 186/185/185
f 200/194/194 199/195/195 191/187/187
f 190/188/188 198/196/196 197/190/190
f 196/191/191 195/192/192 187/184/184
f 194/193/193 193/197/197 185/189/189
f 199/195/195 198/196/196 190/188/188
f 205/198/198 204/199/199 196/191/191
f 203/200/200 202/201/201 194/193/193
f 208/202/202 207/203/203 199/195/195
f 198/196/196 206/204/204 205/198/198
f 204/199/199 203/200/200 195/192/192
f 202/201/201 201/205/205 193/197/197
f 207/203/203 206/204/204 198/196/196
f 205/198/198 213/206/206 212/207/207
f 211/208/208 210/209/209 202/201/201
f 208/202/202 216/210/210 215/211/211
f 206/204/204 214/212/212 213/206/206
f 212/207/207 211/208/208 203/200/200
f 202/201/201 210/209/209 209/213/213
f 215/211/211 214/212/212 206/204/204
f 221/214/214 220/215/215 212/207/207
f 211/208/208 219/216/216 218/217/217
f 224/218/218 223/219/219 215/211/211
f 214/212/212 222/220/220 221/214/214
f 220/215/215 219/216/216 211/208/208
f 210/209/209 218/217/217 217/221/221
f 223/219/219 222/220/220 214/212/212
f 229/222/222 228/223/223 220/215/215
f 227/224/224 226/225/225 218/217/217
f 232/226/226 231/227/227 223/219/219
f 222/220/220 230/228/228 229/222/222
f 228/223/223 227/224/224 219/216/216
f 226/225/225 225/229/229 217/221/221
f 231/227/227 230/228/228 222/220/220
f 237/230/230 236/231/231 228/223/223
f 227/224/224 235/232/232 234/233/233
f 240/234/234 239/235/235 231/227/227
f 230/228/228 238/236/236 237/230/230
f 236/231/231 235/232/232 227/224/224
f 226/225/225 234/233/233 233/237/237
f 239/235/235 238/236/236 230/228/228
f 246/238/238 245/239/239 236/231/231
f 244/240/240 243/241/241 234/233/233
f 249/242/242 248/243/243 239/235/235
f 238/236/236 247/244/244 246/238/238
f 245/239/239 244/240/240 235/232/232
f 243/241/241 242/245/245 233/237/237
f 248/243/243 247/244/244 238/236/236
f 254/246/246 253/247/247 245/239/239
f 244/240/240 252/248/248 251/249/249
f 257/250/250 256/251/251 248/243/243
f 247/244/244 255/252/252 254/246/246
f 245/239/239 253/247/247 252/248/248
f 251/249/249 250/253/253 242/245/245
f 256/251/251 255/252/252 247/244/244
f 1/254/254 9/12/12 241/255/255
f 9/12/12 17/21/21 241/255/255
f 17/21/21 25/29/29 241/255/255
f 25/29/29 33/37/37 241/255/255
f 33/37/37 41/45/45 241/255/255
f 41/45/45 49/53/53 241/255/255
f 49/53/53 57/61/61 241/255/255
f 57/61/61 65/69/69 241/255/255
f 65/69/69 73/77/77 241/255/255
f 73/77/77 81/85/85 241/255/255
f 81/85/85 89/93/93 241/255/255
f 89/93/93 97/101/101 241/255/255
f 97/101/101 105/109/109 241/255/255
f 105/109/109 113/117/117 241/255/255
f 113/117/117 121/125/125 241/255/255
f 121/125/125 129/133/133 241/255/255
f 129/133/133 137/141/141 241/255/255
f 137/141/141 145/149/149 241/255/255
f 145/149/149 153/157/157 241/255/255
f 153/157/157 161/165/165 241/255/255
f 161/165/165 169/173/173 241/255/255
f 169/173/173 177/181/181 241/255/255
f 177/181/181 185/189/189 241/255/255
f 185/189/189 193/197/197 241/255/255
f 193/197/197 201/205/205 241/255/255
f 201/205/205 209/213/213 241/255/255
f 209/213/213 217/221/221 241/255/255
f 217/221/221 225/229/229 241/255/255
f 225/229/229 233/237/237 241/255/255
f 233/237/237 242/245/245 241/255/255
f 242/245/245 250/253/253 241/255/255
f 5/13/13 4/256/256 253/247/247
f 3/9/9 2/10/10 251/249/249
f 250/253/253 1/254/254 241/255/255
f 8/257/257 7/3/3 256/251/251
f 6/4/4 5/13/13 254/246/246
f 4/256/256 3/9/9 252/248/248
f 2/10/10 1/254/254 250/253/253
f 7/3/3 6/4/4 255/252/252
f 8/257/257 16/1/1 7/3/3
f 5/13/13 6/4/4 13/6/6
f 4/256/256 12/7/7 3/9/9
f 1/254/254 2/10/10 9/12/12
f 6/4/4 7/3/3 14/5/5
f 4/256/256 5/13/13 12/7/7
f 3/9/9 11/8/8 2/10/10
f 12/7/7 13/6/6 20/15/15
f 11/8/8 19/16/16 10/11/11
f 16/1/1 24/18/18 15/2/2
f 14/5/5 22/20/20 13/6/6
f 11/8/8 12/7/7 19/16/16
f 10/11/11 18/17/17 9/12/12
f 15/2/2 23/19/19 14/5/5
f 21/14/14 29/22/22 20/15/15
f 19/16/16 27/24/24 18/17/17
f 24/18/18 32/26/26 23/19/19
f 21/14/14 22/20/20 29/22/22
f 20/15/15 28/23/23 19/16/16
f 18/17/17 26/25/25 17/21/21
f 23/19/19 31/27/27 22/20/20
f 29/22/22 37/30/30 28/23/23
f 26/25/25 27/24/24 34/33/33
f 32/26/26 40/34/34 31/27/27
f 29/22/22 30/28/28 37/30/30
f 27/24/24 28/23/23 35/32/32
f 26/25/25 34/33/33 25/29/29
f 31/27/27 39/35/35 30/28/28
f 37/30/30 45/38/38 36/31/31
f 35/32/32 43/40/40 34/33/33
f 40/34/34 48/42/42 39/35/35
f 37/30/30 38/36/36 45/38/38
f 36/31/31 44/39/39 35/32/32
f 34/33/33 42/41/41 33/37/37
f 39/35/35 47/43/43 38/36/36
f 45/38/38 53/46/46 44/39/39
f 43/40/40 51/48/48 42/41/41
f 47/43/43 48/42/42 55/51/51
f 46/44/44 54/52/52 45/38/38
f 44/39/39 52/47/47 43/40/40
f 42/41/41 50/49/49 41/45/45
f 47/43/43 55/51/51 46/44/44
f 53/46/46 61/54/54 52/47/47
f 51/48/48 59/56/56 50/49/49
f 55/51/51 56/50/50 63/59/59
f 53/46/46 54/52/52 61/54/54
f 52/47/47 60/55/55 51/48/48
f 49/53/53 50/49/49 57/61/61
f 55/51/51 63/59/59 54/52/52
f 61/54/54 69/62/62 60/55/55
f 59/56/56 67/64/64 58/57/57
f 64/58/58 72/66/66 63/59/59
f 62/60/60 70/68/68 61/54/54
f 60/55/55 68/63/63 59/56/56
f 58/57/57 66/65/65 57/61/61
f 63/59/59 71/67/67 62/60/60
f 69/62/62 77/70/70 68/63/63
f 66/65/65 67/64/64 74/73/73
f 72/66/66 80/74/74 71/67/67
f 69/62/62 70/68/68 77/70/70
f 67/64/64 68/63/63 75/72/72
f 65/69/69 66/65/65 73/77/77
f 71/67/67 79/75/75 70/68/68
f 76/71/71 77/70/70 84/79/79
f 74/73/73 75/72/72 82/81/81
f 80/74/74 88/82/82 79/75/75
f 77/70/70 78/76/76 85/78/78
f 75/72/72 76/71/71 83/80/80
f 74/73/73 82/81/81 73/77/77
f 79/75/75 87/83/83 78/76/76
f 85/78/78 93/86/86 84/79/79
f 83/80/80 91/88/88 82/81/81
f 88/82/82 96/90/90 87/83/83
f 85/78/78 86/84/84 93/86/86
f 83/80/80 84/79/79 91/88/88
f 81/85/85 82/81/81 89/93/93
f 87/83/83 95/91/91 86/84/84
f 92/87/87 93/86/86 100/95/95
f 90/89/89 91/88/88 98/97/97
f 96/90/90 104/98/98 95/91/91
f 93/86/86 94/92/92 101/94/94
f 91/88/88 92/87/87 99/96/96
f 90/89/89 98/97/97 89/93/93
f 95/91/91 103/99/99 94/92/92
f 101/94/94 109/102/102 100/95/95
f 98/97/97 99/96/96 106/105/105
f 104/98/98 112/106/106 103/99/99
f 101/94/94 102/100/100 109/102/102
f 100/95/95 108/103/103 99/96/96
f 97/101/101 98/97/97 105/109/109
f 103/99/99 111/107/107 102/100/100
f 108/103/103 109/102/102 116/111/111
f 107/104/104 115/112/112 106/105/105
f 112/106/106 120/114/114 111/107/107
f 109/102/102 110/108/108 117/110/110
f 108/103/103 116/111/111 107/104/104
f 105/109/109 106/105/105 113/117/117
f 111/107/107 119/115/115 110/108/108
f 117/110/110 125/118/118 116/111/111
f 114/113/113 115/112/112 122/121/121
f 120/114/114 128/122/122 119/115/115
f 117/110/110 118/116/116 125/118/118
f 115/112/112 116/111/111 123/120/120
f 113/117/117 114/113/113 121/125/125
f 119/115/115 127/123/123 118/116/116
f 124/119/119 125/118/118 132/127/127
f 122/121/121 123/120/120 130/129/129
f 127/123/123 128/122/122 135/131/131
f 125/118/118 126/124/124 133/126/126
f 123/120/120 124/119/119 131/128/128
f 121/125/125 122/121/121 129/133/133
f 127/123/123 135/131/131 126/124/124
f 132/127/127 133/126/126 140/135/135
f 131/128/128 139/136/136 130/129/129
f 135/131/131 136/130/130 143/139/139
f 133/126/126 134/132/132 141/134/134
f 132/127/127 140/135/135 131/128/128
f 129/133/133 130/129/129 137/141/141
f 135/131/131 143/139/139 134/132/132
f 141/134/134 149/142/142 140/135/135
f 139/136/136 147/144/144 138/137/137
f 144/138/138 152/146/146 143/139/139
f 141/134/134 142/140/140 149/142/142
f 140/135/135 148/143/143 139/136/136
f 138/137/137 146/145/145 137/141/141
f 143/139/139 151/147/147 142/140/140
f 149/142/142 157/150/150 148/143/143
f 146/145/145 147/144/144 154/153/153
f 152/146/146 160/154/154 151/147/147
f 149/142/142 150/148/148 157/150/150
f 148/143/143 156/151/151 147/144/144
f 145/149/149 146/145/145 153/157/157
f 151/147/147 159/155/155 150/148/148
f 156/151/151 157/150/150 164/159/159
f 154/153/153 155/152/152 162/161/161
f 160/154/154 168/162/162 159/155/155
f 157/150/150 158/156/156 165/158/158
f 156/151/151 164/159/159 155/152/152
f 154/153/153 162/161/161 153/157/157
f 159/155/155 167/163/163 158/156/156
f 165/158/158 173/166/166 164/159/159
f 162/161/161 163/160/160 170/169/169
f 167/163/163 168/162/162 175/171/171
f 165/158/158 166/164/164 173/166/166
f 164/159/159 172/167/167 163/160/160
f 161/165/165 162/161/161 169/173/173
f 167/163/163 175/171/171 166/164/164
f 173/166/166 181/174/174 172/167/167
f 170/169/169 171/168/168 178/177/177
f 175/171/171 176/170/170 183/179/179
f 173/166/166 174/172/172 181/174/174
f 172/167/167 180/175/175 171/168/168
f 170/169/169 178/177/177 169/173/173
f 175/171/171 183/179/179 174/172/172
f 181/174/174 189/182/182 180/175/175
f 178/177/177 179/176/176 186/185/185
f 183/179/179 184/178/178 191/187/187
f 181/174/174 182/180/180 189/182/182
f 180/175/175 188/183/183 179/176/176
f 178/177/177 186/185/185 177/181/181
f 183/179/179 191/187/187 182/180/180
f 189/182/182 197/190/190 188/183/183
f 187/184/184 195/192/192 186/185/185
f 192/186/186 200/194/194 191/187/187
f 189/182/182 190/188/188 197/190/190
f 188/183/183 196/191/191 187/184/184
f 186/185/185 194/193/193 185/189/189
f 191/187/187 199/195/195 190/188/188
f 197/190/190 205/198/198 196/191/191
f 195/192/192 203/200/200 194/193/193
f 200/194/194 208/202/202 199/195/195
f 197/190/190 198/196/196 205/198/198
f 196/191/191 204/199/199 195/192/192
f 194/193/193 202/201/201 193/197/197
f 199/195/195 207/203/203 198/196/196
f 204/199/199 205/198/198 212/207/207
f 203/200/200 211/208/208 202/201/201
f 207/203/203 208/202/202 215/211/211
f 205/198/198 206/204/204 213/206/206
f 204/199/199 212/207/207 203/200/200
f 201/205/205 202/201/201 209/213/213
f 207/203/203 215/211/211 206/204/204
f 213/206/206 221/214/214 212/207/207
f 210/209/209 211/208/208 218/217/217
f 216/210/210 224/218/218 215/211/211
f 213/206/206 214/212/212 221/214/214
f 212/207/207 220/215/215 211/208/208
f 209/213/213 210/209/209 217/221/221
f 215/211/211 223/219/219 214/212/212
f 221/214/214 229/222/222 220/215/215
f 219/216/216 227/224/224 218/217/217
f 224/218/218 232/226/226 223/219/219
f 221/214/214 222/220/220 229/222/222
f 220/215/215 228/223/223 219/216/216
f 218/217/217 226/225/225 217/221/221
f 223/219/219 231/227/227 222/220/220
f 229/222/222 237/230/230 228/223/223
f 226/225/225 227/224/224 234/233/233
f 232/226/226 240/234/234 231/227/227
f 229/222/222 230/228/228 237/230/230
f 228/223/223 236/231/231 227/224/224
f 225/229/229 226/225/225 233/237/237
f 231/227/227 239/235/235 230/228/228
f 237/230/230 246/238/238 236/231/231
f 235/232/232 244/240/240 234/233/233
f 240/234/234 249/242/242 239/235/235
f 237/230/230 238/236/236 246/238/238
f 236/231/231 245/239/239 235/232/232
f 234/233/233 243/241/241 233/237/237
f 239/235/235 248/243/243 238/236/236
f 246/238/238 254/246/246 245/239/239
f 243/241/241 244/240/240 251/249/249
f 249/242/242 257/250/250 248/243/243
f 246/238/238 247/244/244 254/246/246
f 244/240/240 245/239/239 252/248/248
f 243/241/241 251/249/249 242/245/245
f 248/243/243 256/251/251 247/244/244
f 254/246/246 5/13/13 253/247/247
f 252/248/248 3/9/9 251/249/249
f 257/250/250 8/257/257 256/251/251
f 255/252/252 6/4/4 254/246/246
f 253/247/247 4/256/256 252/248/248
f 251/249/249 2/10/10 250/253/253
f 256/251/251 7/3/3 255/252/252
